<?xml version="1.0" standalone="no"?><!DOCTYPE svg PUBLIC "-//W3C//DTD SVG 1.1//EN" "http://www.w3.org/Graphics/SVG/1.1/DTD/svg11.dtd" ><svg xmlns="http://www.w3.org/2000/svg"><metadata></metadata><defs><font id="Hanyi HYQiHei-45J ExtraLight v5.01" horiz-adv-x="1000"><font-face font-family="HYQiHei-45J" font-weight="200" font-stretch="normal" units-per-em="1000" panose-1="0 2 6 0 4 1 1 1 1 1" ascent="916" descent="-301" x-height="1" bbox="-19 -242 971 825" underline-thickness="50" underline-position="-248" unicode-range="U+0028-ff0c" /><missing-glyph horiz-adv-x="1000"  /><glyph glyph-name="" unicode="(" d="M115 235 q0 -113 28 -222 q31 -123 92 -237 l60 0 q-59 113 -91 234 q-29 110 -29 225 q1 112 29 221 q32 122 90 236 l-60 0 q-60 -113 -90 -236 q-28 -109 -29 -221 Z" /><glyph glyph-name="" unicode=")" d="M44 -224 l61 0 q115 215 119 459 q-5 242 -119 457 l-60 0 q58 -113 90 -236 q28 -109 30 -221 q-1 -115 -30 -225 q-32 -122 -91 -234 Z" /><glyph glyph-name="" unicode="," d="M78 -132 l0 -36 q86 41 88 137 l0 131 l-85 0 l0 -133 l43 0 q0 -31 -12 -60 q-12 -24 -34 -39 Z" /><glyph glyph-name="" unicode="0" d="M54 319 q-1 -73 13 -144 q9 -37 23 -74 q13 -30 31 -58 q32 -45 81 -72 q45 -22 95 -23 q51 1 97 23 q50 27 82 72 q18 28 31 58 q14 37 23 74 q13 71 14 144 q-1 72 -15 142 q-9 38 -23 74 q-14 31 -32 59 q-33 46 -83 74 q-45 22 -94 23 q-50 -1 -94 -23 q-50 -27 -82 -74 q-18 -28 -31 -58 q-14 -36 -23 -74 q-14 -71 -13 -143 ZM120 319 q0 55 8 110 q10 59 36 112 q21 40 58 68 q34 22 75 23 q40 -1 74 -23 q38 -27 60 -68 q27 -53 37 -111 q9 -56 10 -111 q-1 -56 -9 -111 q-10 -59 -36 -112 q-21 -41 -59 -68 q-35 -23 -77 -22 q-41 1 -75 24 q-37 27 -58 67 q-27 53 -36 111 q-8 55 -8 111 Z" /><glyph glyph-name="" unicode="1" d="M109 559 l25 -54 l141 102 l0 -640 l64 0 l0 712 l-62 0 l-168 -120 Z" /><glyph glyph-name="" unicode="2" d="M64 8 l0 -41 l471 0 l0 58 l-382 0 q26 38 58 73 q46 47 98 88 q65 48 125 102 q27 26 49 56 q20 30 32 65 q12 38 13 79 q-1 44 -17 85 q-16 39 -48 67 q-35 28 -79 41 q-39 9 -79 10 q-81 0 -147 -47 q-72 -58 -90 -148 l62 -11 q14 63 63 107 q49 39 112 40 q30 -1 59 -9 q31 -11 56 -33 q41 -44 42 -104 q-2 -57 -32 -105 q-22 -31 -49 -58 q-46 -42 -97 -80 q-74 -54 -140 -118 q-49 -53 -80 -117 Z" /><glyph glyph-name="" unicode="3" d="M57 131 q8 -37 26 -71 q22 -38 57 -64 q34 -25 74 -36 q42 -11 86 -12 q41 1 81 11 q46 12 84 41 q34 27 52 67 q18 43 19 90 q0 68 -40 123 q-40 48 -101 63 q53 18 87 62 q33 48 33 107 q-1 73 -53 124 q-31 27 -69 40 q-44 14 -89 15 q-46 -1 -89 -15 q-39 -14 -71 -40 q-56 -52 -70 -127 l65 -10 q10 57 53 96 q49 38 111 37 q26 -1 52 -7 q28 -9 51 -28 q42 -37 43 -92 q-2 -59 -46 -99 q-43 -36 -99 -36 l-59 0 l0 -59 l59 0 q28 -1 56 -8 q32 -10 59 -30 q50 -46 51 -113 q-1 -70 -53 -116 q-27 -21 -60 -30 q-28 -7 -57 -7 q-33 -1 -64 8 q-30 8 -54 26 q-26 20 -41 48 q-13 25 -19 53 l-65 -11 Z" /><glyph glyph-name="" unicode="4" d="M42 178 l0 -47 l351 0 l0 -164 l65 0 l0 164 l94 0 l0 57 l-94 0 l0 491 l-89 0 l-327 -501 ZM120 188 l272 416 l1 0 l0 -416 l-273 0 Z" /><glyph glyph-name="" unicode="5" d="M61 125 q20 -85 92 -134 q69 -43 151 -43 q43 1 85 13 q48 17 83 51 q33 36 49 82 q16 49 17 101 q-1 51 -18 100 q-17 44 -50 77 q-34 31 -78 46 q-38 10 -76 11 q-51 -1 -97 -22 q-41 -20 -71 -53 l18 266 l331 0 l0 59 l-386 0 l-30 -381 l61 -10 q62 80 164 81 q66 0 115 -44 q24 -25 37 -57 q13 -36 14 -73 q-1 -42 -14 -82 q-13 -35 -39 -61 q-49 -46 -117 -45 q-66 -1 -119 38 q-44 36 -57 93 l-65 -13 Z" /><glyph glyph-name="" unicode="6" d="M139 184 q-4 68 40 120 q24 28 57 46 q34 16 72 17 q66 -1 112 -49 q24 -28 36 -61 q12 -37 13 -75 q-1 -39 -13 -75 q-12 -33 -36 -59 q-46 -47 -112 -46 q-69 0 -117 48 q-24 27 -37 61 q-13 35 -15 73 ZM65 288 q-1 -78 17 -152 q16 -60 53 -110 q35 -42 87 -63 q41 -14 86 -15 q51 0 100 19 q42 18 73 52 q31 38 43 85 q10 40 11 82 q-1 48 -16 94 q-15 44 -46 78 q-32 34 -76 50 q-37 12 -76 13 q-66 -2 -120 -38 q-48 -33 -70 -87 l-2 0 q-2 76 13 151 q13 58 42 110 q21 34 54 58 q36 21 79 22 q45 -1 82 -26 q36 -27 53 -69 l66 12 q-26 65 -85 105 q-52 32 -114 32 q-50 -2 -96 -21 q-57 -28 -91 -82 q-37 -62 -51 -133 q-17 -83 -16 -167 Z" /><glyph glyph-name="" unicode="7" d="M59 620 l391 0 q-114 -159 -178 -343 q-52 -151 -54 -310 l65 0 q2 163 56 318 q65 184 183 342 l0 52 l-463 0 l0 -59 Z" /><glyph glyph-name="" unicode="8" d="M147 504 q1 56 43 95 q47 38 108 38 q57 -1 101 -37 q43 -38 46 -96 q-1 -61 -46 -101 q-45 -35 -101 -34 q-58 -1 -103 33 q-47 40 -48 102 ZM124 158 q1 71 55 118 q52 40 119 40 q38 -1 74 -14 q33 -13 58 -37 q43 -44 44 -106 q-1 -61 -42 -104 q-57 -52 -134 -53 q-39 0 -74 14 q-32 12 -58 36 q-43 44 -42 106 ZM58 157 q0 -42 14 -81 q18 -45 55 -75 q37 -27 81 -40 q44 -12 90 -13 q45 1 88 14 q45 13 82 40 q37 31 56 75 q14 38 15 80 q-2 66 -42 118 q-41 50 -104 68 q51 19 85 63 q32 45 33 101 q-1 39 -18 76 q-18 35 -48 60 q-34 26 -75 38 q-36 9 -72 10 q-39 -1 -76 -10 q-42 -13 -77 -40 q-63 -52 -65 -134 q1 -57 37 -102 q33 -42 84 -62 q-60 -18 -99 -67 q-42 -52 -44 -119 Z" /><glyph glyph-name="" unicode="9" d="M129 458 q0 37 12 73 q12 33 35 59 q47 47 114 47 q68 0 116 -49 q24 -27 37 -60 q13 -35 16 -72 q3 -68 -41 -121 q-51 -59 -128 -61 q-67 0 -113 48 q-24 27 -36 61 q-12 36 -12 75 ZM63 454 q0 -49 16 -95 q17 -44 49 -78 q61 -61 149 -61 q65 2 120 39 q48 34 72 88 l2 -1 q1 -63 -8 -126 q-9 -60 -34 -116 q-13 -25 -30 -47 q-18 -20 -40 -34 q-36 -21 -78 -21 q-46 -1 -83 25 q-36 26 -52 69 l-66 -11 q26 -66 84 -105 q53 -32 115 -32 q49 2 96 21 q56 29 90 82 q37 62 52 132 q16 84 17 169 q0 74 -17 148 q-14 60 -50 110 q-34 44 -86 65 q-43 15 -89 16 q-52 -1 -101 -19 q-43 -17 -74 -52 q-31 -37 -44 -84 q-10 -41 -10 -82 Z" /><glyph glyph-name="" unicode="A" d="M8 -33 l68 0 l85 214 l342 0 l84 -214 l69 0 l-288 725 l-69 0 l-291 -725 ZM333 612 l1 0 l145 -371 l-294 0 l148 371 Z" /><glyph glyph-name="" unicode="B" d="M87 692 l0 -725 l274 0 q55 0 108 14 q45 12 81 39 q33 30 48 72 q11 36 12 75 q0 64 -41 113 q-25 27 -57 42 q-30 13 -62 19 q58 21 97 69 q33 44 34 99 q-1 41 -16 80 q-16 36 -48 60 q-39 25 -84 34 q-44 8 -88 9 l-258 0 ZM154 310 l190 0 q40 0 81 -8 q35 -8 66 -27 q28 -19 42 -50 q10 -27 11 -55 q-1 -34 -15 -64 q-15 -29 -42 -47 q-33 -20 -71 -28 q-35 -7 -71 -6 l-191 0 l0 285 ZM154 633 l183 0 q32 0 63 -6 q34 -7 64 -24 q24 -16 38 -42 q12 -28 13 -58 q-1 -23 -10 -44 q-14 -28 -38 -47 q-56 -43 -127 -43 l-186 0 l0 264 Z" /><glyph glyph-name="" unicode="C" d="M51 331 q-1 -83 23 -161 q22 -70 69 -126 q47 -51 113 -77 q55 -18 113 -19 q44 1 87 10 q50 12 93 40 q38 26 66 64 q28 40 45 86 l-64 10 q-15 -37 -39 -69 q-24 -28 -55 -48 q-62 -35 -133 -33 q-58 0 -109 25 q-50 27 -83 73 q-35 53 -49 115 q-12 54 -12 110 q-1 58 11 116 q14 62 49 114 q33 43 83 67 q52 23 110 23 q77 1 142 -41 q52 -38 75 -98 l67 12 q-30 84 -103 135 q-42 28 -92 41 q-44 10 -89 11 q-62 -1 -120 -20 q-67 -25 -113 -79 q-45 -56 -65 -125 q-21 -77 -20 -156 Z" /><glyph glyph-name="" unicode="D" d="M87 692 l0 -725 l248 0 q62 1 121 18 q68 21 118 72 q48 52 70 118 q23 76 23 155 q-1 70 -20 138 q-19 67 -62 122 q-46 55 -113 81 q-59 21 -122 21 l-263 0 ZM153 633 l184 0 q52 -1 102 -19 q56 -22 94 -69 q35 -46 52 -102 q15 -55 16 -112 q-1 -57 -14 -112 q-15 -60 -54 -109 q-36 -42 -86 -64 q-52 -22 -108 -21 l-186 0 l0 608 Z" /><glyph glyph-name="" unicode="E" d="M87 692 l0 -725 l511 0 l0 58 l-445 0 l0 291 l399 0 l0 60 l-399 0 l0 257 l437 0 l0 59 l-503 0 Z" /><glyph glyph-name="" unicode="F" d="M87 692 l0 -725 l66 0 l0 335 l388 0 l0 59 l-388 0 l0 272 l425 0 l0 59 l-491 0 Z" /><glyph glyph-name="" unicode="G" d="M64 331 q0 -69 17 -135 q20 -75 68 -136 q43 -53 104 -83 q59 -28 124 -29 q84 0 154 45 q72 49 108 129 l0 -155 l59 0 l0 381 l-295 0 l0 -59 l229 0 l0 -86 q-15 -44 -41 -82 q-25 -37 -59 -64 q-66 -49 -148 -49 q-56 0 -105 25 q-50 28 -84 74 q-37 52 -52 114 q-13 54 -13 110 q0 53 12 105 q16 62 53 113 q35 47 86 75 q54 26 114 27 q69 1 129 -35 q30 -21 53 -50 q23 -31 38 -67 l69 11 q-21 49 -52 93 q-28 37 -68 64 q-34 20 -73 32 q-47 11 -96 12 q-74 -1 -142 -31 q-63 -32 -108 -88 q-46 -61 -66 -134 q-15 -63 -15 -127 Z" /><glyph glyph-name="" unicode="H" d="M87 692 l0 -725 l66 0 l0 349 l449 0 l0 -349 l65 0 l0 725 l-65 0 l0 -316 l-449 0 l0 316 l-66 0 Z" /><glyph glyph-name="" unicode="I" d="M87 692 l0 -725 l67 0 l0 725 l-67 0 Z" /><glyph glyph-name="" unicode="J" d="M35 171 l0 -21 q0 -37 9 -73 q12 -40 40 -72 q28 -28 66 -42 q42 -14 87 -15 q42 1 82 14 q38 15 67 43 q30 32 43 75 q10 38 11 79 l0 533 l-66 0 l0 -526 q-1 -29 -7 -58 q-9 -31 -28 -56 q-19 -22 -45 -34 q-28 -11 -57 -11 q-30 -1 -58 10 q-25 10 -44 31 q-19 24 -27 54 q-7 27 -7 56 l0 13 l-66 0 Z" /><glyph glyph-name="" unicode="K" d="M87 692 l0 -725 l66 0 l0 250 l134 144 l266 -394 l81 0 l-300 444 l263 281 l-80 0 l-364 -383 l0 383 l-66 0 Z" /><glyph glyph-name="" unicode="L" d="M87 692 l0 -725 l455 0 l0 58 l-389 0 l0 667 l-66 0 Z" /><glyph glyph-name="" unicode="M" d="M87 692 l0 -725 l66 0 l0 622 l1 0 l267 -622 l64 0 l260 622 l2 0 l0 -622 l65 0 l0 725 l-93 0 l-266 -640 l-1 0 l-272 640 l-93 0 Z" /><glyph glyph-name="" unicode="N" d="M87 692 l0 -725 l67 0 l0 620 l1 -1 l436 -619 l69 0 l0 725 l-65 0 l0 -619 l-2 0 l-437 619 l-69 0 Z" /><glyph glyph-name="" unicode="O" d="M116 329 q0 66 19 130 q18 59 56 107 q39 45 94 68 q46 15 95 17 q48 -2 94 -18 q55 -23 94 -68 q39 -48 58 -107 q19 -63 20 -129 q-1 -67 -19 -131 q-18 -58 -56 -106 q-40 -45 -95 -68 q-47 -16 -96 -16 q-49 0 -94 17 q-55 23 -93 68 q-39 48 -58 106 q-19 64 -19 130 ZM51 329 q0 -78 23 -152 q23 -70 70 -127 q48 -54 117 -81 q57 -20 119 -21 q62 2 121 21 q69 26 117 79 q47 56 69 126 q23 76 23 155 q-1 78 -23 153 q-23 71 -70 127 q-49 55 -118 81 q-58 19 -119 21 q-62 -2 -120 -21 q-68 -26 -117 -80 q-47 -57 -69 -127 q-24 -75 -23 -154 Z" /><glyph glyph-name="" unicode="P" d="M87 692 l0 -725 l66 0 l0 305 l195 0 q44 -1 87 9 q47 11 85 40 q34 28 52 69 q16 46 17 95 q-1 46 -16 89 q-16 40 -49 68 q-39 29 -86 40 q-45 9 -90 10 l-261 0 ZM153 633 l186 0 q32 0 64 -7 q36 -7 66 -27 q26 -19 41 -48 q13 -32 14 -66 q-1 -37 -14 -70 q-15 -29 -41 -49 q-30 -21 -67 -29 q-33 -6 -66 -6 l-183 0 l0 302 Z" /><glyph glyph-name="" unicode="Q" d="M51 329 q0 -78 23 -152 q23 -70 70 -127 q48 -54 117 -81 q57 -20 119 -21 q95 -1 178 48 l90 -84 l47 46 l-89 77 q50 52 75 120 q29 84 29 174 q-1 78 -23 153 q-23 71 -70 127 q-49 55 -118 81 q-58 19 -119 21 q-62 -2 -120 -21 q-68 -26 -117 -80 q-47 -57 -69 -127 q-24 -75 -23 -154 ZM428 118 l82 -77 q-61 -34 -130 -33 q-49 0 -94 17 q-55 23 -93 68 q-39 48 -58 106 q-19 64 -19 130 q0 66 19 130 q18 59 56 107 q39 45 94 68 q46 15 95 17 q48 -2 94 -18 q55 -23 94 -68 q39 -48 58 -107 q19 -63 20 -129 q0 -77 -26 -150 q-21 -58 -63 -101 l-89 78 l-40 -38 Z" /><glyph glyph-name="" unicode="R" d="M87 692 l0 -725 l66 0 l0 321 l229 0 q49 0 85 -34 q19 -19 29 -45 q11 -30 13 -61 q3 -55 11 -109 q6 -37 18 -72 l70 0 q-16 43 -23 89 q-10 48 -12 98 q-2 54 -28 102 q-27 45 -76 64 l0 1 q54 21 89 68 q32 50 31 110 q-1 41 -16 79 q-17 37 -47 64 q-36 28 -80 40 q-40 9 -81 10 l-278 0 ZM153 633 l202 0 q29 -1 58 -7 q33 -7 60 -26 q24 -18 37 -45 q12 -28 13 -59 q0 -67 -49 -111 q-25 -21 -56 -30 q-27 -7 -55 -7 l-210 0 l0 285 Z" /><glyph glyph-name="" unicode="S" d="M51 148 q17 -50 47 -92 q28 -38 67 -63 q40 -26 87 -36 q39 -8 80 -9 q55 1 107 17 q45 16 82 45 q60 56 61 139 q-1 26 -10 51 q-16 35 -44 62 q-36 32 -78 56 q-55 29 -112 51 q-49 18 -96 40 q-32 14 -59 36 q-36 30 -37 76 q0 28 14 52 q17 26 41 43 q56 35 122 35 q64 0 117 -37 q44 -34 63 -86 l71 12 q-13 39 -37 72 q-26 33 -60 56 q-70 43 -152 43 q-54 -1 -105 -17 q-45 -15 -82 -45 q-63 -54 -64 -136 q0 -28 10 -53 q16 -34 44 -58 q35 -28 76 -48 q49 -24 102 -42 q45 -18 88 -39 q35 -18 66 -44 q21 -18 35 -41 q12 -23 14 -49 q-2 -26 -13 -49 q-15 -26 -38 -44 q-29 -21 -63 -31 q-30 -7 -61 -7 q-74 -2 -133 40 q-55 44 -79 111 l-71 -11 Z" /><glyph glyph-name="" unicode="T" d="M8 692 l0 -59 l231 0 l0 -666 l65 0 l0 666 l232 0 l0 59 l-528 0 Z" /><glyph glyph-name="" unicode="U" d="M83 692 l0 -447 q-1 -55 12 -108 q15 -59 53 -105 q38 -42 91 -63 q59 -21 123 -21 q62 0 120 21 q53 21 91 63 q38 46 54 105 q12 53 13 108 l0 447 l-66 0 l0 -443 q0 -56 -16 -108 q-15 -44 -46 -78 q-32 -32 -75 -45 q-37 -10 -75 -10 q-40 0 -78 10 q-44 14 -77 47 q-31 34 -45 78 q-15 52 -14 106 l0 443 l-65 0 Z" /><glyph glyph-name="" unicode="V" d="M8 692 l264 -725 l74 0 l261 725 l-70 0 l-227 -641 l-2 0 l-229 641 l-71 0 Z" /><glyph glyph-name="" unicode="W" d="M10 692 l210 -725 l76 0 l186 639 l2 0 l187 -639 l78 0 l210 725 l-72 0 l-176 -636 l-2 0 l-188 636 l-77 0 l-186 -636 l-2 0 l-174 636 l-72 0 Z" /><glyph glyph-name="" unicode="X" d="M19 692 l240 -357 l-248 -368 l77 0 l210 311 l210 -311 l77 0 l-248 368 l241 357 l-78 0 l-202 -300 l-202 300 l-77 0 Z" /><glyph glyph-name="" unicode="Y" d="M8 692 l265 -427 l0 -298 l66 0 l0 298 l261 427 l-77 0 l-215 -356 l-2 0 l-221 356 l-77 0 Z" /><glyph glyph-name="" unicode="Z" d="M40 22 l0 -55 l546 0 l0 59 l-462 0 l463 616 l0 50 l-517 0 l0 -59 l431 0 l-461 -611 Z" /><glyph glyph-name="" unicode="a" d="M114 86 q0 29 16 55 q11 16 27 29 q18 13 38 24 q50 22 103 34 q63 15 127 24 q-1 -78 -1 -155 q-42 -43 -95 -71 q-49 -24 -104 -24 q-42 -2 -78 19 q-16 11 -25 27 q-9 18 -8 38 ZM49 80 q0 -59 44 -95 q25 -19 55 -27 q31 -9 65 -10 q59 1 113 25 q57 26 101 72 q0 -25 3 -49 q4 -20 20 -33 q19 -14 42 -15 q29 1 58 10 l0 43 q-14 -2 -28 -2 q-10 -1 -20 2 q-8 4 -11 12 q-3 9 -2 19 l0 316 q-1 36 -15 70 q-15 31 -43 53 q-33 23 -72 32 q-37 7 -74 8 q-72 0 -133 -36 q-63 -41 -85 -113 l60 -8 q17 48 59 77 q44 27 96 26 q27 -1 55 -7 q28 -7 51 -24 q37 -33 37 -82 l0 -37 q-81 -12 -161 -32 q-64 -16 -123 -48 q-23 -14 -44 -32 q-18 -18 -30 -40 q-18 -36 -18 -75 Z" /><glyph glyph-name="" unicode="b" d="M69 692 l0 -725 l64 0 l0 63 q42 -40 95 -62 q45 -19 94 -20 q43 1 84 14 q48 17 81 54 q33 41 47 91 q15 57 16 117 q-1 59 -14 117 q-14 52 -45 95 q-33 40 -81 60 q-42 14 -86 15 q-54 -2 -101 -27 q-51 -28 -90 -70 l0 278 l-64 0 ZM315 453 q34 -1 67 -14 q37 -18 61 -52 q23 -35 33 -76 q9 -43 10 -87 q-1 -44 -12 -87 q-11 -39 -34 -73 q-48 -59 -125 -59 q-49 0 -94 20 q-51 23 -88 64 l0 264 q38 44 90 74 q42 24 92 26 Z" /><glyph glyph-name="" unicode="c" d="M45 229 q-1 -60 17 -116 q18 -52 53 -93 q36 -38 86 -57 q42 -14 86 -15 q76 -1 138 42 q58 42 83 112 l-62 11 q-20 -48 -60 -79 q-45 -31 -99 -30 q-33 0 -64 11 q-37 14 -63 45 q-26 33 -38 74 q-13 46 -12 95 q-1 49 13 96 q13 40 39 73 q27 30 65 45 q31 10 65 11 q45 0 85 -23 q44 -27 63 -74 l65 9 q-23 66 -79 106 q-61 40 -134 39 q-46 -1 -89 -15 q-51 -18 -88 -57 q-36 -41 -53 -93 q-18 -57 -17 -117 Z" /><glyph glyph-name="" unicode="d" d="M47 230 q-1 -60 15 -117 q16 -51 49 -93 q33 -38 81 -57 q41 -14 84 -15 q48 2 93 21 q52 22 93 62 l0 -64 l65 0 l0 725 l-65 0 l0 -273 q-38 42 -87 68 q-48 23 -101 24 q-43 -1 -83 -14 q-47 -19 -81 -58 q-33 -41 -48 -92 q-16 -58 -15 -117 ZM284 5 q-78 0 -126 61 q-25 34 -36 75 q-11 43 -11 89 q-1 45 11 90 q12 40 37 74 q48 58 125 59 q48 -1 91 -23 q51 -26 87 -69 l0 -274 q-38 -40 -89 -62 q-43 -19 -89 -20 Z" /><glyph glyph-name="" unicode="f" d="M11 496 l0 -53 l103 0 l0 -476 l64 0 l0 476 l137 0 l0 53 l-137 0 l0 86 q-2 30 19 53 q23 18 54 18 q32 -1 60 -18 l0 57 q-37 15 -76 15 q-26 -1 -51 -7 q-22 -7 -39 -22 q-18 -17 -25 -39 q-7 -21 -6 -42 l0 -101 l-103 0 Z" /><glyph glyph-name="" unicode="g" d="M50 231 q-1 -61 18 -119 q16 -51 51 -91 q63 -67 157 -68 q50 1 95 22 q53 25 94 67 l0 -17 q-1 -38 -9 -76 q-9 -41 -34 -75 q-25 -29 -61 -45 q-40 -14 -82 -15 q-54 0 -100 25 q-40 26 -59 68 l-58 -12 q24 -60 78 -98 q62 -39 137 -38 q49 1 97 14 q52 15 90 53 q35 39 50 89 q16 56 16 114 l0 467 l-65 0 l0 -80 q-38 43 -88 71 q-49 24 -103 24 q-93 -1 -156 -69 q-34 -41 -51 -91 q-18 -59 -17 -120 ZM287 10 q-77 0 -125 59 q-25 33 -36 73 q-12 43 -12 89 q-1 46 12 91 q12 40 38 73 q48 57 123 58 q49 -1 92 -25 q50 -27 86 -72 l0 -257 q-38 -42 -88 -67 q-43 -21 -90 -22 Z" /><glyph glyph-name="" unicode="h" d="M69 692 l0 -725 l65 0 l0 405 q36 40 85 64 q38 19 81 20 q31 -1 60 -12 q26 -11 45 -32 q18 -22 26 -50 q6 -25 7 -49 l0 -346 l64 0 l0 357 q-1 33 -9 65 q-10 37 -35 67 q-25 27 -60 41 q-39 13 -81 14 q-48 -1 -91 -23 q-53 -27 -92 -72 l0 276 l-65 0 Z" /><glyph glyph-name="" unicode="i" d="M69 496 l0 -529 l65 0 l0 529 l-65 0 ZM69 692 l0 -106 l65 0 l0 106 l-65 0 Z" /><glyph glyph-name="" unicode="j" d="M-19 -146 l0 -54 q22 -2 45 -3 q25 0 49 8 q22 8 37 25 q16 20 22 45 q5 23 6 47 l0 574 l-65 0 l0 -565 q1 -31 -15 -57 q-19 -21 -47 -21 q-16 1 -32 1 ZM75 692 l0 -106 l65 0 l0 106 l-65 0 Z" /><glyph glyph-name="" unicode="k" d="M69 692 l0 -726 l65 0 l0 188 l86 84 l210 -272 l75 0 l-241 315 l221 215 l-81 0 l-270 -262 l0 458 l-65 0 Z" /><glyph glyph-name="" unicode="l" d="M69 692 l0 -725 l65 0 l0 725 l-65 0 Z" /><glyph glyph-name="" unicode="m" d="M69 496 l0 -529 l63 0 l0 394 q34 41 80 70 q37 23 81 25 q53 -1 89 -41 q32 -43 32 -96 l0 -352 l65 0 l0 395 q34 39 78 68 q36 23 78 26 q49 0 86 -33 q18 -20 28 -44 q9 -29 10 -58 l0 -354 l64 0 l0 362 q-1 41 -13 81 q-13 33 -37 59 q-27 23 -60 34 q-29 7 -59 8 q-49 -2 -91 -26 q-55 -30 -95 -77 l-1 0 q-21 48 -63 78 q-44 26 -94 25 q-49 -2 -91 -24 q-51 -27 -87 -71 l0 80 l-63 0 Z" /><glyph glyph-name="" unicode="n" d="M69 496 l0 -529 l64 0 l0 405 q36 40 85 64 q38 19 81 20 q31 -1 60 -12 q26 -11 45 -32 q18 -22 26 -50 q6 -25 7 -49 l0 -346 l65 0 l0 357 q0 43 -14 84 q-14 35 -41 60 q-29 25 -66 35 q-32 7 -65 8 q-48 -1 -91 -23 q-53 -27 -92 -72 l0 80 l-64 0 Z" /><glyph glyph-name="" unicode="o" d="M44 230 q-1 -60 17 -117 q16 -51 52 -93 q36 -38 87 -57 q43 -14 89 -15 q46 1 90 15 q50 18 87 56 q35 41 52 93 q16 57 17 118 q-1 58 -17 114 q-17 52 -51 93 q-37 40 -88 59 q-44 14 -90 15 q-46 -1 -90 -16 q-51 -19 -87 -59 q-35 -42 -51 -94 q-17 -55 -17 -112 ZM109 230 q-1 48 13 94 q13 40 40 73 q51 56 127 57 q32 -1 64 -11 q37 -15 64 -45 q26 -33 39 -74 q13 -46 14 -94 q-1 -49 -13 -95 q-12 -41 -38 -74 q-26 -31 -64 -46 q-33 -11 -66 -11 q-34 0 -65 11 q-38 15 -64 46 q-26 33 -39 74 q-13 46 -12 95 Z" /><glyph glyph-name="" unicode="p" d="M69 496 l0 -720 l65 0 l0 254 q42 -39 95 -61 q44 -19 93 -21 q43 1 84 14 q48 17 82 54 q33 41 48 91 q15 58 16 118 q-1 60 -15 119 q-14 52 -47 94 q-33 40 -81 58 q-41 14 -84 15 q-54 -2 -101 -27 q-52 -27 -90 -70 l0 82 l-65 0 ZM315 454 q33 -1 65 -13 q36 -16 60 -48 q24 -35 35 -76 q10 -46 11 -92 q-1 -45 -11 -88 q-11 -39 -35 -73 q-24 -32 -61 -47 q-31 -12 -64 -12 q-49 0 -94 20 q-50 23 -87 63 l0 266 q38 45 89 74 q43 24 92 26 Z" /><glyph glyph-name="" unicode="q" d="M47 230 q-1 -60 15 -117 q16 -51 49 -93 q33 -38 81 -57 q41 -14 84 -15 q49 2 94 22 q53 23 95 64 l0 -258 l64 0 l0 720 l-64 0 l0 -79 q-37 43 -88 69 q-49 24 -103 25 q-43 -1 -83 -14 q-47 -19 -81 -58 q-33 -41 -48 -92 q-16 -58 -15 -117 ZM284 5 q-78 0 -126 61 q-24 35 -36 75 q-11 44 -11 89 q-1 45 12 89 q11 41 36 74 q48 59 125 60 q49 -1 93 -24 q51 -26 88 -71 l0 -268 q-39 -42 -90 -65 q-44 -19 -91 -20 Z" /><glyph glyph-name="" unicode="r" d="M69 496 l0 -530 l63 0 l0 360 q38 53 92 90 q26 17 54 27 q22 8 46 10 l0 55 q-22 -2 -42 -8 q-31 -12 -58 -29 q-55 -36 -92 -89 l0 114 l-63 0 Z" /><glyph glyph-name="" unicode="s" d="M43 85 q22 -64 77 -100 q62 -38 136 -37 q43 1 84 13 q36 11 65 35 q48 40 50 105 q-2 57 -46 93 q-28 21 -60 35 q-38 17 -77 30 q-6 1 -11 3 q-32 12 -63 26 q-19 9 -37 21 q-15 10 -27 25 q-10 14 -10 32 q1 42 37 67 q41 26 91 25 q39 0 74 -18 q37 -22 55 -60 l63 12 q-25 58 -79 91 q-53 29 -113 28 q-34 -1 -67 -8 q-37 -8 -69 -29 q-26 -18 -43 -46 q-14 -28 -14 -58 q1 -52 40 -85 q27 -22 58 -37 q39 -18 81 -32 q37 -14 74 -31 q24 -12 45 -28 q28 -23 30 -58 q-1 -22 -12 -42 q-12 -19 -31 -32 q-39 -25 -86 -25 q-51 -1 -95 22 q-43 28 -60 77 l-60 -14 Z" /><glyph glyph-name="" unicode="t" d="M10 496 l0 -53 l84 0 l0 -399 q-2 -39 23 -68 q13 -14 31 -21 q21 -6 43 -7 q37 0 74 10 l0 53 q-21 -8 -42 -8 q-17 -1 -32 4 q-12 4 -21 13 q-16 21 -14 48 l0 375 l109 0 l0 53 l-109 0 l0 140 l-62 0 l0 -140 l-84 0 Z" /><glyph glyph-name="" unicode="u" d="M69 496 l0 -362 q0 -34 8 -66 q10 -37 35 -66 q25 -26 60 -40 q40 -13 82 -14 q47 1 90 23 q54 26 94 71 l0 -75 l64 0 l0 529 l-64 0 l0 -409 q-32 -36 -73 -60 q-43 -23 -91 -24 q-32 -1 -62 11 q-26 10 -46 31 q-19 23 -27 51 q-6 24 -6 50 l0 350 l-64 0 Z" /><glyph glyph-name="" unicode="v" d="M7 496 l206 -529 l77 0 l204 529 l-70 0 l-172 -465 l-2 0 l-173 465 l-70 0 Z" /><glyph glyph-name="" unicode="w" d="M9 496 l172 -529 l84 0 q60 229 123 459 l1 0 l129 -459 l84 0 l166 529 l-70 0 q-38 -125 -74 -250 q-30 -107 -62 -214 l-2 0 l-128 464 l-87 0 l-122 -464 l-1 0 l-143 464 l-70 0 Z" /><glyph glyph-name="" unicode="x" d="M13 496 l191 -261 l-196 -268 l74 0 l159 218 l160 -218 l74 0 l-197 268 l191 261 l-74 0 l-154 -210 l-154 210 l-74 0 Z" /><glyph glyph-name="" unicode="y" d="M7 496 l214 -523 l-42 -109 q-8 -21 -27 -35 q-20 -12 -43 -12 q-18 0 -35 3 l0 -56 q26 -5 53 -5 q37 0 66 21 q27 23 40 56 l259 660 l-69 0 l-171 -443 l-176 443 l-69 0 Z" /><glyph glyph-name="" unicode="z" d="M32 11 l0 -44 l439 0 l0 53 l-354 0 l341 431 l0 45 l-406 0 l0 -54 l321 0 l-341 -431 Z" /><glyph glyph-name="" unicode="&#x3001;" d="M191 131 q105 -91 173 -213 l61 49 q-37 55 -84 101 q-52 52 -112 93 l-38 -30 Z" /><glyph glyph-name="" unicode="&#x3002;" d="M224 37 q0 46 33 77 q30 27 71 28 q39 -1 69 -28 q34 -31 35 -77 q-1 -45 -35 -77 q-30 -26 -69 -27 q-41 1 -71 27 q-33 32 -33 77 ZM180 37 q0 -56 38 -98 q44 -47 110 -49 q64 2 109 49 q38 42 39 98 q-2 64 -50 109 q-42 37 -98 39 q-57 -2 -100 -39 q-47 -45 -48 -109 Z" /><glyph glyph-name="" unicode="&#x4e00;" d="M42 410 l0 -63 l915 0 l0 63 l-915 0 Z" /><glyph glyph-name="" unicode="&#x4e07;" d="M46 -51 l46 -43 q56 44 106 94 q56 55 97 124 q36 65 55 137 q20 80 29 163 l372 0 l-23 -295 q-3 -35 -13 -68 q-7 -17 -19 -31 q-18 -16 -42 -21 q-34 -6 -68 -5 l-144 0 l11 -56 l151 0 q44 0 87 8 q31 8 54 30 q16 17 25 39 q13 42 17 86 l27 369 l-430 0 l2 23 q5 83 8 167 l550 0 l0 56 l-886 0 l0 -56 l277 0 q-4 -84 -9 -166 q-6 -93 -23 -184 q-15 -76 -50 -146 q-28 -51 -66 -96 q-65 -71 -141 -129 Z" /><glyph glyph-name="" unicode="&#x4e0a;" d="M450 797 l0 -786 l-404 0 l0 -55 l911 0 l0 55 l-449 0 l0 437 l393 0 l0 54 l-393 0 l0 295 l-58 0 Z" /><glyph glyph-name="" unicode="&#x4e13;" d="M55 479 l0 -53 l255 0 q-27 -72 -58 -141 l0 -47 l487 0 q-92 -104 -195 -196 q-172 67 -345 131 l-18 -52 q299 -113 595 -234 l22 54 q-99 41 -197 78 q112 103 215 216 l0 56 l-496 0 q29 66 53 135 l571 0 l0 53 l-552 0 q22 68 42 137 l451 0 l0 54 l-436 0 q15 60 30 122 l-58 8 q-15 -66 -33 -130 l-274 0 l0 -54 l259 0 q-21 -70 -44 -137 l-274 0 Z" /><glyph glyph-name="" unicode="&#x4e16;" d="M435 794 l0 -241 l-191 0 l0 215 l-58 0 l0 -215 l-145 0 l0 -55 l145 0 l0 -538 l746 0 l0 53 l-688 0 l0 485 l191 0 l0 -315 l354 0 l0 315 l169 0 l0 55 l-169 0 l0 243 l-56 0 l0 -243 l-242 0 l0 241 l-56 0 ZM491 237 l0 261 l242 0 l0 -261 l-242 0 Z" /><glyph glyph-name="" unicode="&#x4e1c;" d="M148 356 l0 -54 l344 0 l0 -260 q0 -18 -5 -34 q-4 -12 -14 -19 q-10 -6 -20 -8 q-21 -4 -42 -4 l-108 0 l10 -54 l111 0 q30 0 60 6 q22 5 38 20 q11 12 16 27 q8 25 8 54 l0 272 l332 0 l0 53 l-332 0 l0 197 l-54 0 l0 -197 l-274 0 q76 122 140 252 l564 0 l0 54 l-537 0 q28 59 54 121 l-56 22 q-30 -73 -64 -143 l-252 0 l0 -54 l224 0 q-65 -130 -143 -251 ZM39 -18 l39 -47 q144 112 250 263 l-46 37 q-101 -147 -243 -253 ZM646 194 q132 -122 259 -249 l42 43 q-129 125 -261 247 l-40 -41 Z" /><glyph glyph-name="" unicode="&#x4e2d;" d="M469 798 l0 -204 l-349 0 l0 -439 l58 0 l0 66 l291 0 l0 -320 l58 0 l0 320 l293 0 l0 -64 l58 0 l0 437 l-351 0 l0 204 l-58 0 ZM820 538 l0 -261 l-293 0 l0 261 l293 0 ZM178 538 l291 0 l0 -261 l-291 0 l0 261 Z" /><glyph glyph-name="" unicode="&#x4e34;" d="M444 382 l0 -465 l53 0 l0 66 l342 0 l0 -66 l52 0 l0 465 l-447 0 ZM273 790 l0 -883 l56 0 l0 883 l-56 0 ZM364 446 l49 -36 q72 95 128 202 l414 0 l0 55 l-387 0 q28 60 50 124 l-57 16 q-30 -90 -75 -174 q-53 -99 -122 -187 ZM839 333 l0 -301 l-147 0 l0 301 l147 0 ZM497 333 l145 0 l0 -301 l-145 0 l0 301 ZM105 700 l0 -692 l55 0 l0 692 l-55 0 ZM607 563 q73 -75 143 -153 l41 36 q-71 77 -145 152 l-39 -35 Z" /><glyph glyph-name="" unicode="&#x4e38;" d="M44 -57 l38 -42 q58 44 112 93 q44 39 81 85 q57 76 79 170 q92 -51 185 -102 l28 52 q-101 55 -202 109 q13 108 16 218 l0 21 l258 0 l0 -512 q-1 -22 3 -41 q4 -21 17 -37 q13 -14 31 -19 q24 -6 48 -6 l74 0 q27 0 55 6 q14 4 27 12 q16 11 23 29 q7 21 9 45 q4 87 7 175 l-53 11 q-2 -84 -6 -167 q-1 -15 -5 -30 q-4 -11 -13 -17 q-8 -4 -17 -7 q-18 -3 -35 -3 l-54 0 q-15 0 -29 4 q-10 2 -18 10 q-5 5 -7 13 q-4 14 -3 29 l0 559 l-311 0 q2 96 4 193 l-56 0 q-1 -97 -3 -193 l-266 0 l0 -54 l264 0 l0 -21 q-2 -96 -13 -190 q-97 50 -194 99 l-26 -48 q105 -54 210 -110 q-19 -92 -74 -167 q-35 -44 -77 -82 q-52 -44 -107 -85 Z" /><glyph glyph-name="" unicode="&#x4e8c;" d="M51 58 l0 -58 l896 0 l0 58 l-896 0 ZM139 667 l0 -59 l721 0 l0 59 l-721 0 Z" /><glyph glyph-name="" unicode="&#x4eac;" d="M297 -23 l11 -55 l115 0 q30 0 60 6 q16 3 30 11 q15 11 21 28 q7 21 7 43 l0 227 l274 0 l0 273 l-632 0 l0 -273 l300 0 l0 -207 q0 -14 -4 -27 q-4 -9 -13 -16 q-9 -4 -19 -6 q-21 -4 -41 -4 l-109 0 ZM241 459 l516 0 l0 -170 l-516 0 l0 170 ZM437 783 q34 -54 64 -109 l-441 0 l0 -51 l880 0 l0 51 l-425 0 l42 18 q-33 58 -67 116 l-53 -25 ZM649 144 q133 -103 265 -208 l40 44 q-136 103 -271 208 l-34 -44 ZM43 -19 l36 -47 q73 53 142 111 q59 50 112 109 l-42 37 q-51 -58 -109 -106 q-67 -57 -139 -104 Z" /><glyph glyph-name="" unicode="&#x4eba;" d="M59 -40 l41 -48 q84 61 159 131 q50 50 93 104 q107 138 148 309 q39 -150 127 -277 q54 -75 120 -141 q73 -70 155 -131 l40 51 q-97 66 -180 150 q-76 78 -131 173 q-53 94 -81 198 q-21 83 -27 168 q0 10 1 22 q1 57 1 115 l-57 0 q-1 -48 -1 -95 q-1 -118 -28 -233 q-26 -105 -82 -198 q-45 -71 -102 -133 q-90 -92 -196 -165 Z" /><glyph glyph-name="" unicode="&#x4faf;" d="M279 -56 l26 -51 q66 23 130 52 q50 24 96 54 q63 41 97 108 q43 -69 110 -113 q42 -28 89 -49 q54 -23 110 -39 l24 52 q-47 12 -91 29 q-51 19 -97 48 q-77 50 -115 134 l293 0 l0 49 l-297 0 l0 2 q3 62 5 125 l242 0 l0 49 l-439 0 q19 37 36 76 l-49 17 q-52 -122 -137 -221 l45 -29 q42 51 77 108 l170 0 l-3 -127 l-315 0 l0 -49 l309 0 q-9 -36 -31 -67 q-27 -34 -63 -59 q-51 -33 -108 -56 q-56 -23 -114 -43 ZM32 333 l33 -51 q60 73 108 157 l0 -539 l54 0 l0 640 q54 116 93 239 l-54 14 q-40 -122 -97 -237 q-57 -119 -137 -223 ZM388 734 l0 -49 l390 0 l-9 -130 l-463 0 l0 -49 l650 0 l0 49 l-132 0 l12 179 l-448 0 Z" /><glyph glyph-name="" unicode="&#x523b;" d="M85 402 l14 -51 q20 4 42 6 l193 10 q-52 -64 -115 -116 q-82 -66 -173 -116 l29 -43 q128 72 234 176 q56 56 102 120 q49 69 89 143 l-44 23 q-37 -69 -80 -133 l-196 -10 q76 89 132 193 l283 0 l0 52 l-253 0 l50 19 q-38 63 -79 125 l-50 -22 l76 -122 l-282 0 l0 -52 l194 0 q-54 -98 -126 -182 q-18 -16 -40 -20 ZM646 -34 l12 -55 l115 0 q30 0 60 7 q16 5 30 15 q16 15 23 35 q7 26 7 53 l0 750 l-53 0 l0 -732 q0 -19 -5 -37 q-4 -13 -15 -22 q-9 -7 -20 -9 q-21 -5 -42 -5 l-112 0 ZM37 -63 l33 -46 q90 45 175 100 q65 42 123 94 q97 -86 193 -175 l36 44 q-94 85 -190 168 q88 91 153 200 l-42 28 q-75 -126 -182 -224 q-63 -55 -133 -99 q-81 -49 -166 -90 ZM652 676 l0 -572 l52 0 l0 572 l-52 0 Z" /><glyph glyph-name="" unicode="&#x5317;" d="M574 793 l0 -726 q-1 -33 6 -64 q5 -16 16 -29 q16 -17 38 -22 q32 -7 64 -7 l105 0 q32 0 64 7 q18 4 33 14 q17 14 25 34 q8 27 10 56 q4 81 7 164 l-60 13 q-2 -82 -5 -163 q-1 -19 -7 -36 q-5 -13 -16 -22 q-10 -5 -21 -8 q-22 -4 -44 -3 l-83 0 q-20 -1 -39 3 q-14 3 -24 12 q-6 8 -9 18 q-4 19 -3 38 l0 311 q155 90 302 194 l-34 49 q-129 -97 -268 -177 l0 344 l-57 0 ZM335 793 l0 -263 l-267 0 l0 -57 l267 0 l0 -300 q-144 -68 -290 -129 l23 -55 l267 120 l0 -199 l58 0 l0 883 l-58 0 Z" /><glyph glyph-name="" unicode="&#x533a;" d="M138 733 l0 -781 l809 0 l0 55 l-751 0 l0 671 l731 0 l0 55 l-789 0 ZM237 107 l37 -48 q154 114 289 252 q127 -126 252 -253 l44 42 q-126 127 -254 253 q112 117 210 246 l-48 35 q-95 -128 -205 -240 q-119 115 -240 228 l-39 -41 q121 -113 239 -229 q-134 -134 -285 -245 Z" /><glyph glyph-name="" unicode="&#x5357;" d="M43 682 l0 -52 l419 0 l0 -111 l-348 0 l0 -602 l55 0 l0 552 l640 0 l0 -429 q0 -19 -4 -37 q-3 -11 -12 -19 q-9 -6 -19 -8 q-20 -3 -40 -3 l-112 0 l10 -51 l121 0 q28 0 56 6 q20 5 34 19 q10 12 14 27 q6 26 6 55 l0 490 l-345 0 l0 111 l418 0 l0 52 l-418 0 l0 118 l-56 0 l0 -118 l-419 0 ZM239 308 l0 -45 l223 0 l0 -105 l-248 0 l0 -44 l248 0 l0 -179 l54 0 l0 179 l248 0 l0 44 l-248 0 l0 105 l223 0 l0 45 l-153 0 q48 57 92 119 l-43 26 q-52 -76 -111 -145 l-119 0 l34 25 q-50 61 -101 121 l-39 -29 q49 -58 96 -117 l-156 0 Z" /><glyph glyph-name="" unicode="&#x5373;" d="M300 241 l74 -106 l-215 -93 l0 267 l298 0 l0 429 l-349 0 l0 -691 q0 -12 -7 -22 q-9 -12 -21 -20 l29 -46 q19 15 41 23 q126 55 254 110 q31 -48 64 -95 l47 28 q-86 121 -172 241 l-43 -25 ZM569 716 l0 -808 l54 0 l0 753 l208 0 l0 -472 q0 -17 -4 -34 q-3 -13 -13 -22 q-13 -9 -29 -11 q-16 -3 -33 -2 l-90 0 l10 -55 l100 0 q27 -1 55 6 q20 6 35 20 q10 12 16 27 q7 25 7 52 l0 546 l-316 0 ZM159 688 l246 0 l0 -142 l-246 0 l0 142 ZM159 358 l0 140 l246 0 l0 -140 l-246 0 Z" /><glyph glyph-name="" unicode="&#x5378;" d="M80 535 l47 -29 q44 60 80 127 l115 0 l0 -162 l-263 0 l0 -51 l263 0 l0 -349 l-135 -20 l0 299 l-54 0 l0 -308 l-92 -14 l6 -52 q258 40 518 79 l-1 21 l-2 33 q-94 -16 -187 -30 l0 155 l175 0 l0 52 l-175 0 l0 134 l197 0 l0 51 l-197 0 l0 162 l175 0 l0 52 l-316 0 q23 48 42 100 l-53 16 q-51 -145 -143 -266 ZM608 707 l0 -806 l53 0 l0 753 l189 0 l0 -478 q0 -18 -5 -36 q-3 -9 -9 -17 q-10 -9 -24 -12 q-19 -4 -38 -3 l-84 0 l11 -53 l91 0 q27 -1 54 5 q20 6 35 20 q10 12 15 26 q7 25 7 52 l0 549 l-295 0 Z" /><glyph glyph-name="" unicode="&#x53f0;" d="M175 299 l0 -398 l57 0 l0 58 l532 0 l0 -58 l57 0 l0 398 l-646 0 ZM232 245 l532 0 l0 -233 l-532 0 l0 233 ZM605 657 l153 -157 l-540 -16 q70 58 132 124 q75 79 142 166 l-50 30 q-68 -93 -148 -175 q-67 -71 -144 -131 q-10 -9 -23 -13 q-23 -7 -47 -9 l14 -55 q43 5 87 8 q313 10 627 18 l67 -71 l41 40 q-134 141 -271 279 l-40 -38 Z" /><glyph glyph-name="" unicode="&#x53f7;" d="M189 744 l0 -248 l621 0 l0 248 l-621 0 ZM204 180 l524 0 q-5 -55 -10 -109 q-3 -26 -11 -51 q-6 -13 -17 -21 q-18 -13 -40 -16 q-34 -4 -68 -4 l-205 0 l11 -54 l210 0 q45 0 89 7 q30 5 54 23 q15 14 23 33 q12 34 16 71 q8 84 15 170 l-517 0 l25 116 l652 0 l0 49 l-909 0 l0 -49 l195 0 l-37 -165 ZM249 695 l502 0 l0 -150 l-502 0 l0 150 Z" /><glyph glyph-name="" unicode="&#x5546;" d="M132 498 l0 -583 l52 0 l0 533 l635 0 l0 -404 q0 -19 -5 -37 q-4 -13 -15 -22 q-9 -6 -21 -9 q-21 -5 -42 -5 l-111 0 l10 -50 l115 0 q30 0 60 6 q21 6 38 21 q10 12 16 27 q7 26 7 55 l0 468 l-236 0 q44 52 85 108 l-47 28 q-51 -71 -109 -136 l-184 0 l38 26 q-47 57 -95 113 l621 0 l0 51 l-380 0 q-34 59 -67 118 l-57 -15 l58 -103 l-443 0 l0 -51 l268 0 l-45 -29 q47 -54 91 -110 l-237 0 ZM325 260 l0 -246 l350 0 l0 246 l-350 0 ZM374 211 l252 0 l0 -148 l-252 0 l0 148 ZM562 381 q99 -84 196 -171 l35 40 q-97 84 -195 167 l-36 -36 ZM209 250 l32 -40 q105 81 201 174 l-36 34 q-93 -91 -197 -168 Z" /><glyph glyph-name="" unicode="&#x56db;" d="M116 703 l0 -793 l56 0 l0 80 l654 0 l0 -80 l56 0 l0 793 l-766 0 ZM194 210 l40 -38 q48 34 91 76 q33 33 55 76 q14 32 21 67 q10 57 10 116 l0 142 l166 0 l0 -300 q-1 -31 8 -61 q5 -16 17 -29 q17 -16 41 -21 q30 -7 61 -6 l122 0 l0 -188 l-654 0 l0 605 l184 0 l0 -140 q0 -52 -8 -104 q-8 -40 -28 -76 q-18 -28 -40 -50 q-41 -38 -86 -69 ZM632 368 l0 281 l194 0 l0 -363 l-107 0 q-23 -1 -46 4 q-12 3 -22 10 q-11 10 -15 25 q-5 21 -4 43 Z" /><glyph glyph-name="" unicode="&#x56ed;" d="M106 746 l0 -845 l57 0 l0 59 l675 0 l0 -59 l56 0 l0 845 l-788 0 ZM163 694 l675 0 l0 -682 l-675 0 l0 682 ZM198 97 l31 -44 q45 25 84 60 q34 32 56 73 q16 31 25 65 q13 54 15 109 l134 0 l0 -184 q-1 -22 4 -43 q4 -11 11 -21 q10 -11 24 -16 q19 -5 39 -4 l57 0 q22 -1 44 4 q12 4 22 11 q13 11 18 26 q6 20 7 42 q1 47 3 94 l-45 7 q-2 -43 -2 -85 q-1 -15 -5 -30 q-2 -9 -9 -16 q-7 -4 -14 -6 q-14 -3 -28 -2 l-31 0 q-12 -1 -24 2 q-9 2 -14 8 q-4 5 -6 12 q-3 13 -2 26 l0 175 l195 0 l0 47 l-574 0 l0 -47 l145 0 q-2 -46 -12 -91 q-10 -38 -31 -73 q-24 -34 -56 -60 q-29 -22 -61 -39 ZM265 576 l0 -47 l470 0 l0 47 l-470 0 Z" /><glyph glyph-name="" unicode="&#x56fd;" d="M110 746 l0 -846 l56 0 l0 60 l670 0 l0 -61 l57 0 l0 847 l-783 0 ZM166 695 l670 0 l0 -684 l-670 0 l0 684 ZM258 397 l0 -48 l212 0 l0 -185 l-256 0 l0 -48 l572 0 l0 48 l-263 0 l0 185 l223 0 l0 48 l-223 0 l0 144 l234 0 l0 48 l-514 0 l0 -48 l227 0 l0 -144 l-212 0 ZM591 307 q48 -59 96 -117 l36 29 q-48 57 -97 115 l-35 -27 Z" /><glyph glyph-name="" unicode="&#x5733;" d="M370 142 l-3 24 l-4 31 l-123 -39 l0 328 l121 0 l0 54 l-121 0 l0 249 l-55 0 l0 -249 l-123 0 l0 -54 l123 0 l0 -346 q-70 -22 -140 -42 l13 -56 q156 49 312 100 ZM272 -75 l47 -35 q44 55 78 116 q22 43 37 90 q20 73 26 148 q8 101 8 203 l0 333 l-53 0 l0 -335 q0 -96 -6 -191 q-5 -68 -23 -134 q-14 -42 -35 -82 q-36 -59 -79 -113 ZM822 781 l0 -875 l53 0 l0 875 l-53 0 ZM617 736 l0 -772 l54 0 l0 772 l-54 0 Z" /><glyph glyph-name="" unicode="&#x573a;" d="M215 25 l39 -34 q102 71 175 171 q77 109 105 240 l130 0 q-14 -79 -39 -155 q-22 -65 -57 -124 q-28 -43 -62 -82 q-52 -55 -112 -102 l44 -35 q63 50 117 109 q35 42 64 89 q37 64 59 134 q24 82 37 166 l123 0 q-12 -165 -25 -328 q-2 -22 -10 -42 q-5 -11 -13 -20 q-14 -10 -31 -13 q-24 -4 -49 -4 l-107 0 l10 -53 l107 0 q35 0 70 7 q24 5 44 21 q12 12 19 28 q11 27 13 58 q15 198 28 397 l-427 0 l362 224 l0 54 l-439 0 l0 -53 l340 0 l-369 -230 l0 -46 l121 0 q-29 -118 -99 -216 q-71 -94 -168 -161 ZM357 180 l-4 20 l-3 31 q-59 -22 -117 -42 l0 315 l125 0 l0 53 l-125 0 l0 243 l-55 0 l0 -243 l-125 0 l0 -53 l125 0 l0 -334 l-141 -48 l13 -53 q153 56 307 111 Z" /><glyph glyph-name="" unicode="&#x57ce;" d="M508 -50 l37 -36 q98 83 175 186 q16 -49 40 -95 q17 -36 46 -65 q21 -20 50 -21 q31 1 49 26 q13 20 20 43 q7 23 12 49 q10 62 17 126 l-45 13 q-6 -58 -14 -115 q-6 -34 -17 -64 q-4 -10 -10 -17 q-6 -4 -12 -5 q-15 2 -24 13 q-18 20 -30 46 q-29 57 -47 119 q40 64 70 134 q38 91 66 187 l-48 13 q-22 -78 -52 -154 q-24 -59 -54 -114 q-21 84 -32 170 q-13 91 -19 184 l249 0 l0 52 l-253 0 l-10 175 l-54 0 q5 -88 12 -175 l-283 0 l0 -244 q0 -73 -6 -146 q-6 -60 -23 -117 q-14 -42 -34 -81 q-33 -59 -73 -113 l50 -25 q40 56 72 116 q20 41 35 83 q17 59 24 119 q7 71 8 143 l132 0 q-3 -105 -8 -208 q-1 -20 -6 -38 q-3 -13 -13 -22 q-9 -6 -19 -9 q-20 -4 -40 -3 l-54 0 l11 -54 l56 0 q27 -1 54 6 q15 4 28 13 q15 14 22 33 q7 25 9 51 q4 141 10 283 l-182 0 l0 161 l235 0 q9 -123 29 -244 q14 -86 37 -169 q-83 -119 -193 -210 ZM150 783 l0 -246 l-108 0 l0 -52 l108 0 l0 -338 l-125 -41 l11 -54 q133 47 267 92 l-2 17 l-4 36 q-48 -18 -95 -33 l0 321 l105 0 l0 52 l-105 0 l0 246 l-52 0 ZM735 761 q56 -55 109 -112 l37 34 q-54 57 -112 111 l-34 -33 Z" /><glyph glyph-name="" unicode="&#x57fa;" d="M48 327 l0 -46 l264 0 q-54 -64 -124 -110 q-72 -49 -152 -84 l24 -49 q93 44 177 105 q79 58 136 138 l250 0 q52 -73 123 -127 q89 -64 190 -106 l25 48 q-88 34 -166 85 q-62 42 -110 100 l266 0 l0 46 l-193 0 l0 328 l159 0 l0 45 l-159 0 l0 85 l-54 0 l0 -85 l-411 0 l0 85 l-54 0 l0 -85 l-157 0 l0 -45 l157 0 l0 -328 l-191 0 ZM472 236 l0 -103 l-209 0 l0 -45 l209 0 l0 -109 l-388 0 l0 -47 l827 0 l0 47 l-385 0 l0 109 l205 0 l0 45 l-205 0 l0 103 l-54 0 ZM293 407 l411 0 l0 -80 l-411 0 l0 80 ZM293 531 l411 0 l0 -80 l-411 0 l0 80 ZM293 655 l411 0 l0 -80 l-411 0 l0 80 Z" /><glyph glyph-name="" unicode="&#x5927;" d="M54 -44 l37 -54 q78 49 151 104 q66 52 123 114 q53 58 92 126 q27 50 46 105 q23 -69 62 -131 q42 -66 97 -123 q60 -62 131 -112 q58 -42 121 -79 l36 53 q-94 51 -178 116 q-54 44 -101 96 q-114 129 -145 298 l2 20 l402 0 l0 56 l-401 0 l0 250 l-60 0 l0 -250 l-400 0 l0 -56 l399 0 q-6 -66 -25 -129 q-29 -82 -82 -152 q-58 -75 -132 -134 q-83 -66 -175 -118 Z" /><glyph glyph-name="" unicode="&#x5929;" d="M52 -51 l33 -55 q66 34 130 74 q72 45 135 103 q53 51 94 110 q35 54 57 115 q42 -121 132 -211 q56 -56 122 -98 q78 -51 162 -91 l31 57 q-87 38 -167 89 q-69 44 -125 104 q-92 101 -126 233 l402 0 l0 55 l-408 0 l0 1 l1 232 l351 0 l0 53 l-757 0 l0 -53 l347 0 l0 -232 l0 -1 l-403 0 l0 -55 l399 0 q-11 -69 -44 -130 q-38 -66 -92 -119 q-64 -60 -139 -108 q-66 -39 -135 -73 Z" /><glyph glyph-name="" unicode="&#x5b89;" d="M201 198 q141 -54 281 -113 q-78 -44 -163 -70 q-134 -39 -272 -63 l17 -57 q153 30 301 80 q93 31 177 84 q171 -75 341 -156 l32 52 q-160 73 -321 143 q51 44 89 102 q44 71 74 150 l193 0 l0 52 l-560 0 q38 74 73 152 l-57 20 q-39 -88 -83 -172 l-273 0 l0 -52 l245 0 q-43 -79 -94 -152 ZM112 666 l0 -179 l56 0 l0 126 l670 0 l0 -127 l56 0 l0 180 l-331 0 l18 6 q-45 69 -91 137 l-55 -22 q41 -60 80 -121 l-403 0 ZM286 222 q41 62 77 128 l329 0 q-27 -73 -69 -137 q-36 -52 -86 -91 q-125 52 -251 100 Z" /><glyph glyph-name="" unicode="&#x5b9d;" d="M145 266 l0 -54 l320 0 l0 -206 l-392 0 l0 -53 l852 0 l0 53 l-403 0 l0 206 l332 0 l0 54 l-332 0 l0 157 l368 0 l0 54 l-780 0 l0 -54 l355 0 l0 -157 l-320 0 ZM102 680 l0 -167 l57 0 l0 115 l679 0 l0 -115 l59 0 l0 167 l-326 0 q-41 64 -83 129 l-55 -20 q34 -55 69 -109 l-400 0 ZM639 162 q58 -70 115 -141 l44 34 q-58 70 -116 140 l-43 -33 Z" /><glyph glyph-name="" unicode="&#x5c42;" d="M40 -81 l53 -24 q38 57 67 118 q20 44 33 89 q17 68 23 137 q7 89 7 179 l0 89 l676 0 l0 229 l-732 0 l0 -304 q0 -94 -7 -188 q-5 -53 -16 -104 q-14 -58 -40 -113 q-28 -55 -64 -108 ZM258 -13 l11 -47 q34 7 69 7 l482 17 l67 -72 l40 36 q-99 107 -200 212 l-42 -31 q45 -50 92 -99 q-205 -6 -408 -12 q101 77 182 178 l404 0 l0 47 l-724 0 l0 -47 l251 0 q-78 -92 -172 -165 q-24 -17 -52 -24 ZM223 689 l621 0 l0 -135 l-621 0 l0 135 ZM287 389 l0 -47 l602 0 l0 47 l-602 0 Z" /><glyph glyph-name="" unicode="&#x5c71;" d="M474 784 l0 -752 l-288 0 l0 594 l-56 0 l0 -650 l685 0 l0 -67 l56 0 l0 717 l-56 0 l0 -594 l-286 0 l0 752 l-55 0 Z" /><glyph glyph-name="" unicode="&#x5ddd;" d="M40 -67 l54 -32 q49 60 89 126 q24 44 40 92 q20 74 26 150 q7 109 7 219 l0 292 l-58 0 l0 -293 q0 -104 -6 -207 q-6 -72 -26 -141 q-15 -45 -39 -86 q-39 -63 -87 -120 ZM803 781 l0 -873 l58 0 l0 873 l-58 0 ZM500 746 l0 -789 l57 0 l0 789 l-57 0 Z" /><glyph glyph-name="" unicode="&#x5e02;" d="M57 669 l0 -53 l414 0 l0 -155 l-319 0 l0 -456 l55 0 l0 402 l264 0 l0 -506 l55 0 l0 506 l265 0 l0 -255 q0 -22 -4 -43 q-3 -14 -13 -24 q-9 -7 -20 -9 q-21 -4 -43 -3 l-109 0 l11 -56 l110 0 q32 -1 63 6 q22 5 38 21 q11 14 16 30 q7 30 7 61 l0 326 l-321 0 l0 155 l415 0 l0 53 l-884 0 ZM435 788 q35 -59 71 -117 l54 19 l-72 119 l-53 -21 Z" /><glyph glyph-name="" unicode="&#x5e73;" d="M50 286 l0 -56 l420 0 l0 -324 l58 0 l0 324 l420 0 l0 56 l-420 0 l0 399 l377 0 l0 55 l-812 0 l0 -55 l377 0 l0 -399 l-420 0 ZM637 377 l44 -32 q91 118 176 241 l-45 31 q-84 -124 -175 -240 ZM141 585 q89 -118 174 -239 l46 31 q-87 120 -176 240 l-44 -32 Z" /><glyph glyph-name="" unicode="&#x5e7f;" d="M42 -68 l53 -29 q41 63 74 130 q20 45 34 92 q17 67 23 136 q7 87 7 175 l0 176 l713 0 l0 53 l-319 0 q-44 72 -89 144 l-54 -16 l79 -128 l-386 0 l0 -234 q0 -82 -6 -162 q-6 -65 -23 -127 q-14 -45 -33 -87 q-33 -63 -73 -123 Z" /><glyph glyph-name="" unicode="&#x5e9c;" d="M41 -71 l51 -27 q32 56 57 115 q15 40 26 82 q13 61 18 122 q5 78 5 156 l0 248 l744 0 l0 52 l-335 0 q-39 65 -79 130 l-57 -19 q35 -55 70 -111 l-398 0 l0 -305 q0 -71 -5 -141 q-4 -57 -17 -113 q-26 -101 -80 -189 ZM565 -27 l10 -51 l111 0 q33 0 65 7 q17 4 31 14 q17 13 24 34 q7 25 7 53 l0 350 l135 0 l0 52 l-135 0 l0 159 l-54 0 l0 -159 l-319 0 l0 -52 l319 0 l0 -334 q0 -19 -5 -38 q-4 -13 -15 -22 q-10 -6 -22 -9 q-23 -4 -46 -4 l-106 0 ZM209 277 l37 -40 q51 56 95 119 l0 -447 l52 0 l0 531 q37 67 65 139 l-52 20 q-33 -86 -80 -164 q-50 -86 -117 -158 ZM483 305 q67 -94 132 -189 l43 30 q-66 93 -133 187 l-42 -28 Z" /><glyph glyph-name="" unicode="&#x5efa;" d="M372 436 l0 -44 l206 0 l0 -93 l-213 0 l0 -45 l213 0 l0 -90 l-265 0 l0 -45 l265 0 l0 -104 l48 0 l0 104 l291 0 l0 45 l-291 0 l0 90 l253 0 l0 45 l-253 0 l0 93 l222 0 l0 138 l96 0 l0 44 l-96 0 l0 137 l-222 0 l0 90 l-48 0 l0 -90 l-205 0 l0 -43 l205 0 l0 -94 l-247 0 l0 -44 l247 0 l0 -94 l-206 0 ZM22 -56 l38 -41 q73 71 131 156 q58 -62 140 -90 q47 -15 97 -21 q55 -7 111 -7 l397 0 l8 47 l-403 0 q-54 0 -107 6 q-47 5 -91 18 q-76 26 -127 87 q32 59 54 124 q26 85 41 173 l0 45 l-176 0 l181 227 l0 48 l-263 0 l0 -47 l201 0 l-181 -229 l0 -46 l188 0 q-13 -73 -35 -143 q-17 -56 -43 -107 q-53 87 -80 187 l-42 -14 q16 -60 41 -117 q22 -54 56 -101 q-58 -87 -136 -155 ZM800 668 l0 -94 l-174 0 l0 94 l174 0 ZM626 436 l0 94 l174 0 l0 -94 l-174 0 Z" /><glyph glyph-name="" unicode="&#x5fb7;" d="M337 569 l0 -215 l551 0 l0 215 l-248 0 l0 89 l292 0 l0 46 l-292 0 l0 96 l-53 0 l0 -96 l-275 0 l0 -46 l275 0 l0 -89 l-250 0 ZM28 238 l30 -42 q56 57 105 121 l0 -412 l52 0 l0 486 q42 63 76 133 l-43 26 q-40 -80 -92 -152 q-58 -85 -128 -160 ZM554 198 q53 -63 102 -128 l39 30 q-51 61 -102 123 l352 0 l0 47 l-657 0 l0 -47 l298 0 l-32 -25 ZM449 169 l0 -158 q-1 -20 5 -39 q4 -11 13 -19 q12 -11 27 -15 q21 -5 43 -5 l143 0 q23 0 46 5 q13 3 23 10 q13 8 18 22 q6 18 7 36 l3 83 l-47 8 q-2 -38 -3 -75 q-1 -12 -4 -22 q-4 -8 -11 -13 q-19 -9 -41 -8 l-123 0 q-14 0 -28 3 q-7 1 -13 5 q-6 5 -9 13 q-3 11 -2 23 l0 146 l-47 0 ZM45 529 l34 -43 q127 128 223 282 l-44 30 q-41 -68 -90 -129 q-58 -74 -123 -140 ZM841 528 l0 -134 l-123 0 l0 134 l123 0 ZM384 528 l122 0 l0 -134 l-122 0 l0 134 ZM552 528 l120 0 l0 -134 l-120 0 l0 134 ZM791 152 q67 -96 129 -195 l43 28 q-64 98 -131 193 l-41 -26 ZM253 -23 l43 -25 q58 98 102 205 l-44 16 q-42 -103 -101 -196 Z" /><glyph glyph-name="" unicode="&#x6210;" d="M426 -19 l37 -42 q104 71 192 163 q20 -47 49 -88 q16 -24 35 -46 q14 -17 31 -30 q25 -18 56 -19 q37 0 62 27 q15 19 24 42 q9 23 15 49 q13 63 24 128 l-50 16 q-10 -61 -21 -120 q-7 -35 -23 -64 q-11 -18 -31 -19 q-19 2 -33 14 q-22 18 -38 42 q-38 52 -61 113 q54 67 94 143 q47 92 81 191 l-50 20 q-29 -87 -68 -169 q-34 -66 -78 -125 q-28 87 -43 177 q-17 96 -25 194 l327 0 l0 54 l-332 0 l-13 168 l-55 0 q5 -85 13 -168 l-402 0 l0 -255 q0 -76 -7 -151 q-5 -45 -15 -90 q-13 -54 -37 -105 q-26 -52 -59 -102 l54 -26 q66 101 95 218 q10 46 15 93 q7 75 8 151 l198 0 q-5 -111 -11 -220 q-2 -21 -8 -41 q-5 -15 -17 -24 q-11 -6 -24 -9 q-26 -4 -51 -3 l-77 0 l11 -54 l78 0 q35 -1 69 6 q18 5 34 16 q18 15 26 37 q10 28 12 58 q9 143 15 288 l-255 0 l0 159 l354 0 q9 -112 29 -222 q18 -101 52 -198 q-93 -101 -206 -177 ZM675 763 q68 -55 131 -115 l39 35 q-66 60 -134 117 l-36 -37 Z" /><glyph glyph-name="" unicode="&#x65b0;" d="M445 -82 l50 -26 q40 53 71 110 q19 41 32 84 q17 65 22 131 q6 86 6 172 l0 8 l154 0 l0 -490 l53 0 l0 490 l124 0 l0 52 l-331 0 l0 192 q153 18 300 69 l-18 52 q-71 -26 -145 -42 q-94 -21 -189 -30 l0 -291 q0 -85 -6 -169 q-5 -65 -22 -127 q-13 -42 -32 -81 q-30 -54 -69 -104 ZM143 -27 l10 -52 l62 0 q27 0 54 5 q14 3 26 11 q13 10 18 27 q6 22 6 45 l0 226 l199 0 l0 49 l-199 0 l0 129 l216 0 l0 49 l-164 0 q38 74 72 151 l-46 16 q-37 -85 -79 -167 l-272 0 l0 -49 l220 0 l0 -129 l-207 0 l0 -49 l207 0 l0 -204 q0 -16 -2 -31 q-2 -10 -10 -17 q-7 -5 -16 -7 q-19 -3 -37 -3 l-58 0 ZM229 793 q28 -53 56 -105 l-210 0 l0 -48 l435 0 l0 48 l-168 0 q-31 61 -63 122 l-50 -17 ZM34 -12 l41 -25 q76 102 127 220 l-45 18 q-48 -115 -123 -213 ZM362 171 q53 -74 105 -149 l39 30 q-52 74 -106 146 l-38 -27 ZM130 609 q35 -68 69 -137 l44 19 q-34 68 -70 136 l-43 -18 Z" /><glyph glyph-name="" unicode="&#x671d;" d="M431 -70 l45 -34 q33 40 62 83 q25 35 43 76 q29 74 35 155 l218 0 l0 -170 q0 -17 -4 -33 q-3 -8 -9 -15 q-11 -9 -24 -11 q-20 -4 -39 -4 l-94 0 l10 -53 l95 0 q29 0 58 6 q21 5 36 20 q10 11 15 26 q7 25 7 52 l0 699 l-315 0 l0 -358 q0 -80 -6 -158 q-5 -57 -23 -112 q-14 -37 -34 -70 q-35 -52 -76 -99 ZM65 681 l0 -50 l195 0 l0 -99 l-153 0 l0 -318 l153 0 l0 -98 l-214 0 l0 -49 l214 0 l0 -163 l52 0 l0 163 l193 0 l0 49 l-193 0 l0 98 l154 0 l0 318 l-154 0 l0 99 l198 0 l0 50 l-198 0 l0 112 l-52 0 l0 -112 l-195 0 ZM621 345 l0 96 l213 0 l0 -179 l-215 0 q1 41 2 83 ZM621 674 l213 0 l0 -179 l-213 0 l0 179 ZM158 485 l257 0 l0 -88 l-257 0 l0 88 ZM158 262 l0 87 l257 0 l0 -87 l-257 0 Z" /><glyph glyph-name="" unicode="&#x671f;" d="M454 -70 l49 -33 q32 38 60 79 q24 34 40 74 q29 76 34 158 l208 0 l0 -166 q0 -18 -4 -34 q-4 -11 -13 -19 q-9 -6 -19 -8 q-19 -4 -38 -4 l-90 0 l11 -52 l90 0 q28 0 57 6 q15 4 28 14 q15 13 20 32 q7 25 7 53 l0 699 l-302 0 l0 -331 q0 -87 -5 -174 q-5 -62 -22 -121 q-13 -39 -34 -74 q-34 -52 -77 -99 ZM41 205 l0 -47 l512 0 l0 47 l-99 0 l0 427 l94 0 l0 47 l-94 0 l0 108 l-50 0 l0 -108 l-201 0 l0 108 l-50 0 l0 -108 l-84 0 l0 -47 l84 0 l0 -427 l-112 0 ZM642 676 l203 0 l0 -184 l-203 0 l0 184 ZM642 374 l0 68 l203 0 l0 -183 l-205 0 q1 57 2 115 ZM203 317 l201 0 l0 -112 l-201 0 l0 112 ZM203 474 l201 0 l0 -111 l-201 0 l0 111 ZM203 632 l201 0 l0 -111 l-201 0 l0 111 ZM49 -51 l38 -39 q99 86 178 190 l-41 32 q-77 -103 -175 -183 ZM329 97 q66 -61 129 -124 l36 37 l-130 122 l-35 -35 Z" /><glyph glyph-name="" unicode="&#x67dc;" d="M415 731 l0 -785 l525 0 l0 54 l-470 0 l0 188 l393 0 l0 322 l-393 0 l0 167 l457 0 l0 54 l-512 0 ZM47 597 l0 -53 l135 0 q-48 -190 -159 -349 l28 -53 q84 119 134 257 l0 -488 l54 0 l0 485 q55 -65 109 -131 l38 34 q-58 69 -118 137 l-29 -26 l0 134 l139 0 l0 53 l-139 0 l0 199 l-54 0 l0 -199 l-138 0 ZM809 458 l0 -217 l-339 0 l0 217 l339 0 Z" /><glyph glyph-name="" unicode="&#x6842;" d="M57 594 l0 -50 l135 0 q-56 -187 -163 -348 l37 -48 q78 125 131 264 l0 -512 l52 0 l0 498 q51 -63 102 -127 l41 34 q-55 67 -112 132 l-31 -27 l0 134 l129 0 l0 50 l-129 0 l0 197 l-52 0 l0 -197 l-140 0 ZM329 3 l0 -53 l624 0 l0 53 l-274 0 l0 178 l225 0 l0 51 l-225 0 l0 118 l-55 0 l0 -118 l-224 0 l0 -51 l224 0 l0 -178 l-295 0 ZM362 437 l0 -54 l590 0 l0 54 l-273 0 l0 159 l225 0 l0 52 l-225 0 l0 144 l-55 0 l0 -144 l-221 0 l0 -52 l221 0 l0 -159 l-262 0 Z" /><glyph glyph-name="" unicode="&#x6865;" d="M298 226 l29 -46 q55 34 107 73 q43 32 81 71 q60 63 94 143 l40 0 q44 -97 122 -170 q74 -64 165 -105 l26 51 q-48 22 -93 50 q-38 24 -72 54 q-57 52 -92 120 l232 0 l0 51 l-309 0 q25 82 36 169 q113 11 225 31 l-7 52 q-246 -41 -493 -56 l6 -51 q106 6 213 17 q-13 -83 -37 -162 l-204 0 l0 -51 l183 0 q-32 -67 -85 -119 q-35 -32 -73 -60 q-46 -33 -94 -62 ZM55 602 l0 -52 l141 0 q-30 -104 -76 -201 q-39 -83 -90 -158 l29 -52 q39 57 70 120 q38 76 67 156 l0 -512 l52 0 l0 517 q57 -59 114 -117 l36 36 q-62 62 -124 124 l-26 -27 l0 114 l135 0 l0 52 l-135 0 l0 192 l-52 0 l0 -192 l-141 0 ZM328 -70 l37 -39 q48 35 90 76 q24 25 43 54 q22 38 31 81 q9 50 9 101 l0 85 l-53 0 l0 -84 q0 -45 -7 -89 q-8 -37 -27 -68 q-17 -26 -39 -47 q-40 -37 -84 -70 ZM721 289 l0 -383 l54 0 l0 383 l-54 0 Z" /><glyph glyph-name="" unicode="&#x697c;" d="M354 569 l0 -47 l229 0 q-53 -55 -116 -97 q-60 -40 -126 -69 l-95 97 l-22 -27 l0 119 l116 0 l0 51 l-116 0 l0 192 l-50 0 l0 -192 l-129 0 l0 -51 l129 0 q-30 -105 -74 -205 q-36 -83 -83 -159 l30 -46 q36 57 65 118 q35 76 62 155 l0 -512 l50 0 l0 513 l95 -100 l18 18 l13 -26 q68 32 131 74 q64 44 118 100 l0 -149 l52 0 l0 153 q50 -52 111 -91 q80 -51 170 -85 l20 48 q-81 28 -155 71 q-70 41 -126 100 l248 0 l0 47 l-268 0 l0 220 l-52 0 l0 -220 l-245 0 ZM402 107 q98 -37 196 -75 q-57 -26 -117 -41 q-99 -26 -198 -44 l16 -48 q114 21 226 55 q68 21 131 55 q125 -48 249 -103 l23 46 q-112 47 -224 90 q34 28 59 64 q30 44 50 94 l129 0 l0 49 l-393 0 q18 36 34 74 l-50 13 q-19 -45 -43 -87 l-179 0 l0 -49 l151 0 q-29 -48 -60 -93 ZM651 63 q-87 33 -173 65 q23 35 45 72 l232 0 q-19 -44 -46 -82 q-25 -32 -58 -55 ZM718 622 l35 -31 q65 67 126 140 l-38 27 q-59 -71 -123 -136 ZM376 732 q60 -68 117 -139 l39 29 q-60 70 -121 139 l-35 -29 Z" /><glyph glyph-name="" unicode="&#x6b66;" d="M600 796 q5 -137 16 -273 l-565 0 l0 -52 l569 0 q0 -5 1 -9 q11 -140 40 -276 q12 -56 30 -110 q12 -38 30 -73 q17 -37 49 -63 q27 -20 61 -21 q32 1 55 24 q26 30 35 69 q17 77 31 156 l-51 19 q-11 -74 -26 -147 q-4 -25 -18 -44 q-10 -15 -27 -16 q-17 1 -30 11 q-18 14 -29 35 q-22 43 -35 89 q-17 56 -29 114 q-23 117 -31 237 q-1 2 -1 5 l276 0 l0 52 l-279 0 q-10 136 -17 273 l-55 0 ZM359 443 l0 -396 l-148 -18 l0 354 l-54 0 l0 -360 l-112 -13 l7 -53 q289 36 580 68 l0 27 l-2 29 q-109 -15 -217 -27 l0 190 l174 0 l0 53 l-174 0 l0 146 l-54 0 ZM139 710 l0 -51 l404 0 l0 51 l-404 0 ZM716 721 q74 -76 148 -152 l38 36 q-74 75 -148 150 l-38 -34 Z" /><glyph glyph-name="" unicode="&#x6bb5;" d="M358 -47 l27 -53 q76 31 149 69 q70 35 134 81 q51 -42 109 -73 q77 -42 159 -74 l25 54 q-78 27 -152 62 q-53 27 -100 63 q117 101 167 248 l0 53 l-428 0 l0 -51 l51 0 l-19 -8 q45 -136 147 -237 q-53 -36 -109 -64 q-78 -38 -160 -70 ZM143 726 l0 -598 l-103 -13 l7 -53 l96 14 l0 -175 l52 0 l0 182 l259 36 l0 24 l-1 29 q-129 -20 -258 -37 l0 164 l231 0 l0 50 l-231 0 l0 145 l231 0 l0 50 l-231 0 l0 135 q133 12 263 46 l-14 51 q-67 -18 -136 -29 q-82 -14 -165 -21 ZM439 446 l38 -33 q30 25 56 54 q15 18 26 38 q14 25 19 53 q6 31 6 63 l0 70 l186 0 l0 -152 q-1 -23 5 -44 q5 -12 13 -21 q12 -12 28 -17 q20 -5 42 -4 l87 0 l10 51 l-80 0 q-15 -1 -28 2 q-10 3 -17 10 q-5 7 -7 14 q-3 15 -2 30 l0 182 l-288 0 l0 -105 q0 -31 -4 -61 q-5 -26 -16 -49 q-10 -17 -23 -33 q-24 -26 -51 -48 ZM534 332 l285 0 q-47 -129 -152 -215 q-43 39 -74 88 q-37 60 -59 127 Z" /><glyph glyph-name="" unicode="&#x6c11;" d="M123 -47 l26 -50 q33 17 69 27 q141 46 284 88 l-6 57 q-146 -47 -292 -91 l0 257 l366 0 q15 -67 40 -131 q23 -59 61 -110 q26 -40 65 -69 q33 -24 75 -25 q33 -1 59 19 q25 23 37 55 q25 65 44 133 l-51 28 q-15 -62 -34 -122 q-8 -21 -22 -38 q-14 -12 -32 -12 q-26 1 -47 16 q-28 19 -46 48 q-33 45 -54 97 q-22 54 -35 111 l316 0 l0 56 l-328 0 q-17 85 -26 172 l274 0 l0 275 l-719 0 l0 -756 q-1 -9 -6 -17 q-8 -10 -18 -18 ZM204 692 l605 0 l0 -172 l-605 0 l0 172 ZM559 297 l-355 0 l0 172 l329 0 q9 -87 26 -172 Z" /><glyph glyph-name="" unicode="&#x6c5f;" d="M384 702 l0 -56 l230 0 l0 -631 l-316 0 l0 -55 l656 0 l0 55 l-282 0 l0 631 l246 0 l0 56 l-534 0 ZM313 250 l-25 13 l-27 15 q-87 -172 -178 -339 l52 -28 q88 169 178 339 ZM49 500 q105 -78 210 -158 l33 49 q-105 78 -211 154 l-32 -45 ZM123 728 q97 -72 191 -147 l35 48 q-96 73 -193 144 l-33 -45 Z" /><glyph glyph-name="" unicode="&#x6d66;" d="M576 798 l0 -135 l-263 0 l0 -50 l263 0 l0 -112 l-250 0 l0 -586 l56 0 l0 198 l194 0 l0 -186 l52 0 l0 186 l195 0 l0 -76 q0 -17 -4 -33 q-3 -11 -12 -19 q-9 -5 -19 -7 q-21 -4 -41 -4 l-66 0 l10 -52 l77 0 q28 0 56 6 q15 4 27 12 q15 12 21 30 q6 24 6 48 l0 483 l-250 0 l0 112 l318 0 l0 50 l-115 0 l36 36 q-57 53 -115 103 l-37 -35 l114 -104 l-201 0 l0 135 l-52 0 ZM823 451 l0 -120 l-195 0 l0 120 l195 0 ZM382 451 l194 0 l0 -120 l-194 0 l0 120 ZM628 282 l195 0 l0 -119 l-195 0 l0 119 ZM382 282 l194 0 l0 -119 l-194 0 l0 119 ZM246 267 l-24 8 l-30 11 q-57 -177 -120 -350 l55 -19 q59 175 119 350 ZM43 501 q90 -73 178 -149 l35 46 q-89 74 -179 146 l-34 -43 ZM96 727 l170 -143 l34 45 q-84 72 -171 140 l-33 -42 Z" /><glyph glyph-name="" unicode="&#x6d77;" d="M311 51 l462 0 l0 -13 q-1 -19 -8 -35 q-7 -13 -21 -21 q-11 -6 -25 -9 q-24 -5 -48 -5 l-144 0 l10 -51 l150 0 q33 0 66 7 q24 5 43 21 q12 12 19 27 q10 27 12 55 q-1 12 1 24 l104 0 l0 51 l-102 0 q4 84 7 170 l116 0 l0 50 l-114 0 q4 109 8 219 l-478 0 l-26 -219 l-95 0 l0 -50 l89 0 l-26 -221 ZM776 102 l-407 0 l21 170 l394 0 l-8 -170 ZM418 491 l376 0 q-4 -85 -7 -169 l-390 0 l21 169 ZM265 518 l38 -39 q70 77 127 167 l496 0 l0 50 l-466 0 q25 44 47 91 l-50 18 q-74 -159 -192 -287 ZM239 255 l-23 8 l-28 11 q-62 -173 -129 -343 l53 -20 q63 172 127 344 ZM87 728 q90 -70 181 -141 l30 44 q-89 70 -179 139 l-32 -42 ZM37 506 q90 -69 179 -140 l32 45 q-90 69 -180 137 l-31 -42 ZM496 220 q69 -50 137 -102 l31 39 l-138 101 l-30 -38 ZM516 441 q67 -49 133 -101 l30 40 q-67 50 -134 100 l-29 -39 Z" /><glyph glyph-name="" unicode="&#x6df1;" d="M233 2 l31 -46 q102 55 194 127 q67 54 120 124 l0 -308 l54 0 l0 307 q48 -69 114 -123 q87 -70 187 -122 l32 50 q-108 51 -201 126 q-69 58 -117 134 l282 0 l0 51 l-297 0 l0 126 l-54 0 l0 -126 l-280 0 l0 -51 l261 0 q-52 -76 -121 -135 q-43 -36 -90 -67 q-57 -36 -115 -67 ZM317 723 l0 -169 l52 0 l0 118 l483 0 l0 -119 l52 0 l0 170 l-587 0 ZM243 246 l-25 7 l-28 8 q-53 -168 -113 -332 l53 -17 q55 167 113 334 ZM308 418 l31 -45 q118 82 222 184 l-35 39 q-99 -102 -218 -178 ZM647 555 q115 -81 226 -168 l32 42 q-113 85 -229 167 l-29 -41 ZM45 493 q92 -73 181 -150 l35 44 q-91 75 -183 148 l-33 -42 ZM82 711 q87 -70 172 -143 l35 45 q-86 71 -174 140 l-33 -42 Z" /><glyph glyph-name="" unicode="&#x6e56;" d="M503 -82 l44 -30 q33 41 63 86 q24 36 40 77 q11 31 18 63 q10 51 13 103 l160 0 l0 -183 q0 -16 -4 -31 q-4 -10 -13 -18 q-8 -5 -17 -7 q-18 -4 -36 -4 l-83 0 l10 -50 l82 0 q28 0 55 6 q15 4 28 13 q15 12 21 30 q7 24 7 48 l0 707 l-257 0 l0 -338 q0 -87 -4 -174 q-4 -61 -20 -119 q-12 -39 -32 -74 q-34 -55 -75 -105 ZM267 604 l0 -53 l129 0 l0 -177 l-95 0 l0 -352 l241 0 l0 352 l-96 0 l0 177 l151 0 l0 53 l-151 0 l0 184 l-50 0 l0 -184 l-129 0 ZM350 322 l143 0 l0 -248 l-143 0 l0 248 ZM684 674 l157 0 l0 -180 l-157 0 l0 180 ZM684 366 l0 77 l157 0 l0 -176 l-158 0 q1 49 1 99 ZM247 264 l-29 10 l-22 7 q-65 -175 -135 -347 l49 -18 q70 173 137 348 ZM33 494 q86 -71 172 -144 l32 45 q-86 71 -173 140 l-31 -41 ZM83 719 q77 -63 155 -127 l32 44 q-77 62 -154 124 l-33 -41 Z" /><glyph glyph-name="" unicode="&#x7533;" d="M131 656 l0 -586 l57 0 l0 69 l282 0 l0 -238 l57 0 l0 238 l282 0 l0 -69 l57 0 l0 586 l-339 0 l0 142 l-57 0 l0 -142 l-339 0 ZM188 603 l282 0 l0 -180 l-282 0 l0 180 ZM809 603 l0 -180 l-282 0 l0 180 l282 0 ZM188 370 l282 0 l0 -178 l-282 0 l0 178 ZM527 370 l282 0 l0 -178 l-282 0 l0 178 Z" /><glyph glyph-name="" unicode="&#x754c;" d="M154 751 l0 -373 l295 0 q-88 -76 -192 -128 q-106 -52 -220 -84 l25 -51 q142 45 273 118 q55 31 105 70 q32 25 61 55 q80 -86 184 -141 l-48 0 l0 -317 l57 0 l0 312 q115 -62 241 -96 l24 52 q-116 29 -225 80 q-104 50 -187 130 l298 0 l0 373 l-691 0 ZM209 703 l263 0 l0 -117 l-263 0 l0 117 ZM789 703 l0 -117 l-263 0 l0 117 l263 0 ZM526 426 l0 115 l263 0 l0 -115 l-263 0 ZM209 541 l263 0 l0 -115 l-263 0 l0 115 ZM115 -71 l33 -47 q46 23 90 50 q45 29 81 68 q58 71 57 164 l0 54 l-57 0 l0 -54 q0 -37 -10 -73 q-12 -34 -36 -62 q-32 -32 -73 -56 q-42 -24 -85 -44 Z" /><glyph glyph-name="" unicode="&#x767e;" d="M174 531 l0 -626 l55 0 l0 71 l542 0 l0 -69 l56 0 l0 624 l-343 0 q22 75 40 153 l422 0 l0 54 l-893 0 l0 -54 l409 0 q-17 -78 -39 -153 l-249 0 ZM229 228 l542 0 l0 -200 l-542 0 l0 200 ZM229 478 l542 0 l0 -198 l-542 0 l0 198 Z" /><glyph glyph-name="" unicode="&#x7701;" d="M40 385 l16 -52 q77 15 155 34 l0 -469 l57 0 l0 65 l503 0 l0 -64 l56 0 l0 513 l-456 0 q110 33 215 80 q84 38 164 87 l-28 44 q-151 -91 -318 -146 q-179 -58 -364 -92 ZM268 232 l503 0 l0 -92 l-503 0 l0 92 ZM268 366 l503 0 l0 -91 l-503 0 l0 91 ZM268 96 l503 0 l0 -88 l-503 0 l0 88 ZM55 539 l27 -47 q150 90 281 207 l-33 41 q-128 -114 -275 -201 ZM644 700 q145 -93 289 -188 l29 47 q-145 92 -289 183 l-29 -42 ZM468 797 l0 -250 l58 0 l0 250 l-58 0 Z" /><glyph glyph-name="" unicode="&#x793e;" d="M640 799 l0 -308 l-211 0 l0 -56 l211 0 l0 -425 l-277 0 l0 -54 l589 0 l0 54 l-254 0 l0 425 l225 0 l0 56 l-225 0 l0 308 l-58 0 ZM29 204 l27 -52 q85 67 157 149 l0 -396 l57 0 l0 467 q58 80 104 169 l0 54 l-308 0 l0 -54 l245 0 q-47 -88 -110 -165 q-78 -94 -172 -172 ZM277 332 q81 -68 159 -139 l35 41 q-79 70 -161 137 l-33 -39 ZM181 778 q36 -80 70 -161 l52 17 q-35 81 -71 162 l-51 -18 Z" /><glyph glyph-name="" unicode="&#x7f57;" d="M124 749 l0 -263 l753 0 l0 263 l-753 0 ZM53 163 l32 -44 q75 49 143 109 q120 -59 240 -121 l27 46 q-113 56 -227 111 q25 23 49 49 l451 0 q-107 -136 -260 -215 q-104 -53 -215 -90 q-109 -33 -219 -61 l25 -52 q117 30 231 69 q119 39 230 99 q168 92 281 247 l0 51 l-481 0 q36 44 69 92 l-55 20 q-66 -98 -152 -177 q-79 -75 -169 -133 ZM178 701 l185 0 l0 -167 l-185 0 l0 167 ZM823 701 l0 -167 l-182 0 l0 167 l182 0 ZM413 701 l177 0 l0 -167 l-177 0 l0 167 Z" /><glyph glyph-name="" unicode="&#x82cf;" d="M82 -68 l38 -45 q83 47 157 107 q58 48 98 113 q27 50 42 104 q21 90 25 182 l0 2 l258 0 q-9 -163 -22 -325 q-2 -24 -10 -47 q-5 -12 -14 -21 q-15 -11 -34 -15 q-27 -4 -55 -4 l-128 0 l11 -53 l132 0 q36 0 72 7 q26 5 46 22 q14 13 21 30 q11 29 14 61 q14 198 26 397 l-315 0 l3 100 l-56 0 q-1 -51 -3 -100 l-291 0 l0 -52 l289 0 l0 -2 q-5 -83 -24 -164 q-18 -66 -58 -122 q-32 -43 -73 -77 q-71 -55 -149 -98 ZM50 691 l0 -53 l257 0 l0 -89 l57 0 l0 89 l273 0 l0 -91 l57 0 l0 91 l257 0 l0 53 l-257 0 l0 108 l-57 0 l0 -108 l-273 0 l0 108 l-57 0 l0 -108 l-257 0 ZM66 123 l42 -39 q88 103 153 224 l-47 31 q-62 -117 -148 -216 ZM755 266 q91 -83 179 -169 l37 45 q-89 85 -180 167 l-36 -43 Z" /><glyph glyph-name="" unicode="&#x8857;" d="M270 44 l6 -51 q207 19 415 37 l-3 51 q-90 -10 -180 -17 l0 145 l153 0 l0 50 l-153 0 l0 110 l-52 0 l0 -110 l-150 0 l0 -50 l150 0 l0 -150 q-93 -8 -186 -15 ZM293 459 l0 -51 l370 0 l0 51 l-155 0 l0 152 l146 0 l0 50 l-146 0 l0 140 l-52 0 l0 -140 l-146 0 l0 -50 l146 0 l0 -152 l-163 0 ZM656 -33 l10 -55 l81 0 q28 0 56 5 q19 5 34 18 q9 10 14 24 q6 24 6 48 l0 416 l98 0 l0 53 l-271 0 l0 -53 l118 0 l0 -396 q0 -17 -4 -32 q-3 -11 -12 -18 q-8 -5 -18 -7 q-19 -3 -38 -3 l-74 0 ZM29 255 l23 -55 q58 60 110 127 l0 -426 l52 0 l0 496 q46 66 85 139 l-44 28 q-42 -78 -94 -150 q-61 -84 -132 -159 ZM44 553 l21 -55 q61 50 113 109 q62 69 114 147 l-44 31 q-86 -131 -204 -232 ZM687 716 l0 -53 l252 0 l0 53 l-252 0 Z" /><glyph glyph-name="" unicode="&#x8c61;" d="M67 554 l23 -46 q33 17 65 38 l0 -159 l239 0 q-62 -52 -137 -81 q-99 -40 -201 -66 l18 -46 q111 29 217 74 q69 29 128 75 q29 -28 55 -59 q-87 -58 -183 -99 q-106 -45 -215 -78 l19 -44 q112 35 219 82 q98 43 185 105 q20 -32 33 -67 q-107 -77 -227 -128 q-127 -54 -259 -87 l20 -44 q147 41 286 102 q101 46 191 112 q4 -32 5 -63 q0 -28 -8 -54 q-6 -14 -17 -25 q-18 -15 -40 -20 q-30 -7 -60 -7 l-103 0 l10 -49 l106 0 q40 0 80 9 q22 7 41 19 q23 18 33 45 q11 32 12 68 q0 66 -19 130 q33 13 67 29 q36 -80 97 -143 q35 -36 76 -66 q47 -32 99 -60 l35 44 q-51 25 -99 57 q-39 26 -74 59 q-56 57 -89 129 q78 36 155 78 l-26 45 q-126 -72 -258 -128 q-43 81 -112 141 q5 4 10 11 l395 0 l0 196 l-238 0 l114 95 l0 41 l-369 0 q28 30 54 64 l-49 23 q-63 -82 -143 -146 q-76 -61 -161 -106 ZM806 540 l0 -112 l-313 0 q32 53 55 112 l258 0 ZM659 677 l-113 -94 l-335 0 q60 42 114 94 l334 0 ZM209 540 l285 0 q-22 -60 -59 -110 q-1 -2 -2 -2 l-224 0 l0 112 Z" /><glyph glyph-name="" unicode="&#x8d1f;" d="M60 479 l37 -43 q43 32 84 70 l0 -390 l57 0 l0 339 l522 0 l0 -339 l57 0 l0 391 l-221 0 q73 79 147 159 l0 50 l-378 0 q25 34 46 72 l-55 19 q-117 -193 -296 -328 ZM54 -49 l27 -54 q63 18 126 39 q66 22 129 53 q48 22 90 55 q33 26 58 61 q203 -101 405 -205 l29 51 q-204 102 -410 200 q21 57 20 120 l0 122 l-59 0 l0 -118 q-1 -28 -4 -56 q-4 -26 -13 -50 q-10 -25 -26 -46 q-19 -23 -43 -42 q-30 -22 -62 -39 q-42 -20 -86 -37 q-90 -30 -181 -54 ZM329 666 l342 0 q-73 -81 -147 -159 l-342 0 q80 73 147 159 Z" /><glyph glyph-name="" unicode="&#x8d27;" d="M318 541 l17 -52 q101 23 201 58 l0 -34 q-1 -21 3 -40 q4 -20 17 -36 q13 -13 31 -18 q23 -6 47 -5 l178 0 q28 -1 56 4 q20 5 36 18 q10 11 16 25 q8 25 10 52 q2 44 3 89 l-53 13 q-1 -43 -2 -85 q-1 -18 -6 -35 q-3 -9 -10 -16 q-9 -9 -23 -12 q-18 -4 -37 -3 l-144 0 q-16 -1 -32 3 q-12 3 -20 12 q-6 7 -9 16 q-5 17 -4 35 l0 37 q154 57 298 138 l-25 48 q-132 -75 -273 -127 l0 172 l-57 0 l0 -193 q-108 -37 -218 -64 ZM52 -51 l22 -52 q69 15 137 33 q69 18 135 43 q47 19 89 44 q31 20 54 48 q216 -84 431 -172 l23 53 q-214 85 -429 164 q7 23 11 47 q5 41 7 84 l-60 0 q-2 -36 -6 -71 q-4 -36 -23 -66 q-12 -17 -28 -31 q-20 -16 -43 -29 q-71 -34 -146 -54 q-87 -23 -174 -41 ZM190 328 l0 -257 l55 0 l0 207 l516 0 l0 -207 l55 0 l0 257 l-626 0 ZM52 526 l26 -47 q78 56 149 122 l0 -221 l56 0 l0 278 q50 56 93 119 l-44 27 q-117 -163 -280 -278 Z" /><glyph glyph-name="" unicode="&#x8def;" d="M96 745 l0 -280 l141 0 l0 -415 l-108 -17 l0 348 l-48 0 l0 -355 q-30 -5 -58 -9 l8 -51 q192 30 386 58 l-2 25 l-1 29 q-64 -11 -128 -21 l0 193 l120 0 l0 50 l-120 0 l0 165 l85 0 l0 280 l-275 0 ZM465 265 l0 -351 l51 0 l0 61 l278 0 l0 -61 l52 0 l0 351 l-381 0 ZM395 342 l23 -48 q131 44 245 122 q49 -37 106 -63 q74 -34 153 -56 l20 50 q-72 18 -140 47 q-51 22 -97 54 q104 90 166 214 l0 49 l-288 0 q23 41 43 86 l-50 15 q-30 -68 -72 -130 q-49 -72 -109 -135 l32 -40 q41 41 77 87 q47 -81 117 -144 q-107 -69 -226 -108 ZM516 216 l278 0 l0 -194 l-278 0 l0 194 ZM145 694 l177 0 l0 -178 l-177 0 l0 178 ZM553 662 l262 0 q-59 -106 -152 -182 q-77 67 -127 157 l17 25 Z" /><glyph glyph-name="" unicode="&#x9053;" d="M412 783 q46 -53 92 -107 l-209 0 l0 -47 l281 0 q-14 -46 -30 -91 l-174 0 l0 -449 l477 0 l0 449 l-243 0 q15 45 30 91 l307 0 l0 47 l-218 0 q47 53 91 110 l-49 26 q-52 -71 -110 -136 l-153 0 l42 30 q-46 54 -93 107 l-41 -30 ZM35 -20 l28 -54 l138 140 q28 -38 64 -67 q23 -18 50 -31 q36 -16 76 -21 q49 -6 98 -6 l459 0 l9 53 l-461 0 q-47 0 -93 6 q-38 4 -72 21 q-25 13 -47 31 q-33 31 -58 69 l0 334 l-183 0 l0 -54 l129 0 l0 -282 l-137 -139 ZM428 132 l0 94 l365 0 l0 -94 l-365 0 ZM428 494 l365 0 l0 -93 l-365 0 l0 93 ZM428 359 l365 0 l0 -91 l-365 0 l0 91 ZM77 745 q68 -95 132 -191 l49 32 q-66 96 -134 190 l-47 -31 Z" /><glyph glyph-name="" unicode="&#x90fd;" d="M51 483 l0 -48 l255 0 q-54 -52 -113 -96 q-79 -58 -162 -107 l25 -46 q51 31 101 65 l0 -341 l49 0 l0 56 l290 0 l0 359 l-238 0 q64 50 120 110 l206 0 l0 48 l-164 0 q83 103 139 224 l-48 21 q-61 -135 -158 -245 l-53 0 l0 140 l139 0 l0 47 l-139 0 l0 125 l-50 0 l0 -125 l-165 0 l0 -47 l165 0 l0 -140 l-199 0 ZM626 737 l0 -835 l53 0 l0 785 l195 0 l-94 -285 q48 -53 82 -115 q25 -50 26 -105 q0 -25 -7 -49 q-6 -18 -22 -30 q-13 -8 -28 -12 q-28 -6 -57 -5 l-63 0 l11 -53 l61 0 q39 -1 77 8 q28 8 50 28 q14 16 22 35 q10 35 10 71 q0 62 -26 118 q-32 64 -78 120 l91 270 l0 54 l-303 0 ZM206 11 l0 113 l241 0 l0 -113 l-241 0 ZM206 278 l241 0 l0 -109 l-241 0 l0 109 Z" /><glyph glyph-name="" unicode="&#x94fa;" d="M608 798 l0 -134 l-230 0 l0 -50 l230 0 l0 -112 l-229 0 l0 -587 l52 0 l0 198 l177 0 l0 -185 l51 0 l0 185 l182 0 l0 -79 q0 -16 -4 -32 q-3 -10 -12 -18 q-8 -5 -18 -7 q-18 -4 -37 -4 l-64 0 l10 -51 l75 0 q26 0 51 6 q14 4 26 12 q14 12 19 30 q6 23 6 46 l0 486 l-234 0 l0 112 l296 0 l0 50 l-106 0 l35 34 q-55 52 -112 103 l-36 -34 l109 -103 l-186 0 l0 134 l-51 0 ZM32 482 l36 -36 l23 33 l0 -40 l72 0 l0 -137 l-113 0 l0 -52 l113 0 l0 -240 q0 -10 -5 -20 q-9 -15 -20 -28 l31 -40 q16 18 36 31 q69 53 141 103 l-19 49 l-110 -88 l0 233 l134 0 l0 52 l-134 0 l0 137 l116 0 l0 51 l-235 0 q37 59 68 123 l180 0 l0 51 l-157 0 q25 59 45 120 l-49 17 q-54 -171 -153 -319 ZM841 451 l0 -120 l-182 0 l0 120 l182 0 ZM659 281 l182 0 l0 -118 l-182 0 l0 118 ZM431 451 l177 0 l0 -120 l-177 0 l0 120 ZM431 281 l177 0 l0 -118 l-177 0 l0 118 Z" /><glyph glyph-name="" unicode="&#x9633;" d="M456 719 l0 -808 l56 0 l0 83 l328 0 l0 -83 l56 0 l0 808 l-440 0 ZM109 742 l0 -841 l56 0 l0 786 l169 0 l-86 -250 q44 -55 73 -119 q20 -44 21 -92 q0 -26 -6 -51 q-4 -13 -13 -24 q-13 -12 -30 -16 q-22 -4 -45 -3 l-61 0 l11 -56 l69 0 q25 -1 49 5 q27 8 47 26 q18 19 26 44 q9 31 9 64 q-1 54 -20 104 q-27 68 -71 127 l84 241 l0 55 l-282 0 ZM512 337 l328 0 l0 -289 l-328 0 l0 289 ZM512 664 l328 0 l0 -271 l-328 0 l0 271 Z" /><glyph glyph-name="" unicode="&#x9886;" d="M484 555 l0 -420 l52 0 l0 372 l298 0 l0 -371 l54 0 l0 419 l-205 0 q17 66 34 134 l235 0 l0 51 l-521 0 l0 -51 l228 0 q-16 -68 -34 -134 l-141 0 ZM380 -60 l32 -45 q52 27 102 57 q40 25 77 53 q51 40 83 98 q124 -98 246 -198 l37 45 q-132 101 -265 201 q18 70 17 143 l0 158 l-52 0 l0 -147 q0 -62 -12 -122 q-13 -51 -46 -93 q-31 -35 -69 -63 q-72 -48 -150 -87 ZM98 152 q117 -108 232 -217 l33 42 l-80 75 q74 113 142 231 l0 53 l-355 0 l0 -49 l297 0 q-58 -102 -122 -199 q-57 52 -114 105 l-33 -41 ZM29 443 l28 -41 q121 126 195 286 q86 -96 172 -192 l36 36 q-94 103 -187 206 q9 23 18 47 l-48 17 q-33 -93 -82 -178 q-57 -97 -132 -181 ZM185 522 q53 -74 105 -150 l41 30 q-54 75 -107 150 l-39 -30 Z" /><glyph glyph-name="" unicode="&#x9986;" d="M430 514 l0 -619 l53 0 l0 58 l342 0 l0 -53 l53 0 l0 288 l-395 0 l0 103 l370 0 l0 223 l-423 0 ZM825 140 l0 -140 l-342 0 l0 140 l342 0 ZM377 677 l0 -154 l55 0 l0 103 l435 0 l0 -102 l54 0 l0 153 l-218 0 q-31 63 -63 126 l-55 -18 q29 -54 57 -108 l-265 0 ZM483 467 l317 0 l0 -129 l-317 0 l0 129 ZM34 395 l40 -35 q53 109 90 226 l136 0 l-59 -147 l44 -15 l63 161 l0 53 l-168 0 q18 70 35 141 l-50 8 q-42 -204 -131 -392 ZM131 -20 l31 -42 q21 21 46 37 q68 53 139 106 l-18 53 q-60 -49 -120 -96 l0 425 l-51 0 l0 -434 q0 -14 -6 -25 q-9 -13 -21 -24 Z" /><glyph glyph-name="" unicode="&#x9ec4;" d="M637 794 l0 -98 l-273 0 l0 98 l-53 0 l0 -98 l-213 0 l0 -46 l213 0 l0 -100 l-252 0 l0 -46 l414 0 l0 -91 l-301 0 l0 -324 l657 0 l0 324 l-302 0 l0 91 l414 0 l0 46 l-252 0 l0 100 l213 0 l0 46 l-213 0 l0 98 l-52 0 ZM364 650 l273 0 l0 -100 l-273 0 l0 100 ZM775 369 l0 -97 l-248 0 l0 97 l248 0 ZM225 369 l248 0 l0 -97 l-248 0 l0 97 ZM527 132 l0 96 l248 0 l0 -96 l-248 0 ZM225 228 l248 0 l0 -96 l-248 0 l0 96 ZM68 -56 l18 -50 q166 54 327 125 l-21 46 q-158 -71 -324 -121 ZM589 20 q162 -56 323 -120 l19 50 l-324 115 l-18 -45 Z" /><glyph glyph-name="" unicode="&#xff08;" d="M611 353 q3 -134 36 -263 q17 -68 43 -132 q17 -43 41 -83 l60 0 q-23 40 -40 82 q-26 64 -43 131 q-34 130 -37 265 q0 61 10 121 q10 70 28 138 q17 67 42 132 q16 41 39 81 l-60 0 q-23 -39 -40 -81 q-25 -64 -42 -131 q-17 -69 -28 -139 q-9 -60 -9 -121 Z" /><glyph glyph-name="" unicode="&#xff09;" d="M210 -125 l63 0 q23 40 40 83 q24 64 40 132 q31 129 34 263 q-4 131 -35 260 q-16 67 -40 131 q-17 42 -39 81 l-61 0 q21 -40 38 -81 q25 -65 42 -132 q17 -68 28 -138 q9 -60 11 -121 q-4 -135 -39 -265 q-17 -67 -43 -131 q-17 -42 -39 -82 Z" /><glyph glyph-name="" unicode="&#xff0c;" d="M197 -132 l0 -36 q39 17 64 53 q24 39 24 84 l0 131 l-85 0 l0 -133 l43 0 q0 -31 -12 -60 q-12 -24 -34 -39 Z" /></font>
</defs>
</svg>
